<mxfile host="app.diagrams.net" agent="Mozilla/5.0 (Macintosh; Intel Mac OS X 10_15_7) AppleWebKit/605.1.15 (KHTML, like Gecko) Version/17.6 Safari/605.1.15" version="24.8.6">
  <diagram name="Page-1" id="UIa_NBIZWrGz9OmeFC9Z">
    <mxGraphModel dx="2372" dy="2367" grid="0" gridSize="10" guides="1" tooltips="1" connect="1" arrows="1" fold="1" page="1" pageScale="1" pageWidth="850" pageHeight="1100" math="0" shadow="0">
      <root>
        <mxCell id="0" />
        <mxCell id="1" parent="0" />
        <mxCell id="KKD2eMfDHWxA5FH26lHS-13" value="Person" style="shape=table;startSize=20;container=1;collapsible=1;childLayout=tableLayout;fixedRows=1;rowLines=0;fontStyle=1;align=center;resizeLast=1;html=1;labelBackgroundColor=none;fillColor=#F2CC8F;strokeColor=#E07A5F;fontColor=#393C56;" parent="1" vertex="1">
          <mxGeometry x="520" y="-135" width="180" height="280" as="geometry" />
        </mxCell>
        <mxCell id="KKD2eMfDHWxA5FH26lHS-14" value="" style="shape=tableRow;horizontal=0;startSize=0;swimlaneHead=0;swimlaneBody=0;fillColor=none;collapsible=0;dropTarget=0;points=[[0,0.5],[1,0.5]];portConstraint=eastwest;top=0;left=0;right=0;bottom=1;labelBackgroundColor=none;strokeColor=#E07A5F;fontColor=#393C56;" parent="KKD2eMfDHWxA5FH26lHS-13" vertex="1">
          <mxGeometry y="20" width="180" height="30" as="geometry" />
        </mxCell>
        <mxCell id="KKD2eMfDHWxA5FH26lHS-15" value="PK" style="shape=partialRectangle;connectable=0;fillColor=none;top=0;left=0;bottom=0;right=0;fontStyle=1;overflow=hidden;whiteSpace=wrap;html=1;labelBackgroundColor=none;strokeColor=#E07A5F;fontColor=#393C56;" parent="KKD2eMfDHWxA5FH26lHS-14" vertex="1">
          <mxGeometry width="30" height="30" as="geometry">
            <mxRectangle width="30" height="30" as="alternateBounds" />
          </mxGeometry>
        </mxCell>
        <mxCell id="KKD2eMfDHWxA5FH26lHS-16" value="SSN" style="shape=partialRectangle;connectable=0;fillColor=none;top=0;left=0;bottom=0;right=0;align=left;spacingLeft=6;fontStyle=5;overflow=hidden;whiteSpace=wrap;html=1;labelBackgroundColor=none;strokeColor=#E07A5F;fontColor=#393C56;" parent="KKD2eMfDHWxA5FH26lHS-14" vertex="1">
          <mxGeometry x="30" width="150" height="30" as="geometry">
            <mxRectangle width="150" height="30" as="alternateBounds" />
          </mxGeometry>
        </mxCell>
        <mxCell id="KKD2eMfDHWxA5FH26lHS-17" value="" style="shape=tableRow;horizontal=0;startSize=0;swimlaneHead=0;swimlaneBody=0;fillColor=none;collapsible=0;dropTarget=0;points=[[0,0.5],[1,0.5]];portConstraint=eastwest;top=0;left=0;right=0;bottom=0;labelBackgroundColor=none;strokeColor=#E07A5F;fontColor=#393C56;" parent="KKD2eMfDHWxA5FH26lHS-13" vertex="1">
          <mxGeometry y="50" width="180" height="30" as="geometry" />
        </mxCell>
        <mxCell id="KKD2eMfDHWxA5FH26lHS-18" value="" style="shape=partialRectangle;connectable=0;fillColor=none;top=0;left=0;bottom=0;right=0;editable=1;overflow=hidden;whiteSpace=wrap;html=1;labelBackgroundColor=none;strokeColor=#E07A5F;fontColor=#393C56;" parent="KKD2eMfDHWxA5FH26lHS-17" vertex="1">
          <mxGeometry width="30" height="30" as="geometry">
            <mxRectangle width="30" height="30" as="alternateBounds" />
          </mxGeometry>
        </mxCell>
        <mxCell id="KKD2eMfDHWxA5FH26lHS-19" value="Name" style="shape=partialRectangle;connectable=0;fillColor=none;top=0;left=0;bottom=0;right=0;align=left;spacingLeft=6;overflow=hidden;whiteSpace=wrap;html=1;labelBackgroundColor=none;strokeColor=#E07A5F;fontColor=#393C56;" parent="KKD2eMfDHWxA5FH26lHS-17" vertex="1">
          <mxGeometry x="30" width="150" height="30" as="geometry">
            <mxRectangle width="150" height="30" as="alternateBounds" />
          </mxGeometry>
        </mxCell>
        <mxCell id="KKD2eMfDHWxA5FH26lHS-20" value="" style="shape=tableRow;horizontal=0;startSize=0;swimlaneHead=0;swimlaneBody=0;fillColor=none;collapsible=0;dropTarget=0;points=[[0,0.5],[1,0.5]];portConstraint=eastwest;top=0;left=0;right=0;bottom=0;labelBackgroundColor=none;strokeColor=#E07A5F;fontColor=#393C56;" parent="KKD2eMfDHWxA5FH26lHS-13" vertex="1">
          <mxGeometry y="80" width="180" height="30" as="geometry" />
        </mxCell>
        <mxCell id="KKD2eMfDHWxA5FH26lHS-21" value="" style="shape=partialRectangle;connectable=0;fillColor=none;top=0;left=0;bottom=0;right=0;editable=1;overflow=hidden;whiteSpace=wrap;html=1;labelBackgroundColor=none;strokeColor=#E07A5F;fontColor=#393C56;" parent="KKD2eMfDHWxA5FH26lHS-20" vertex="1">
          <mxGeometry width="30" height="30" as="geometry">
            <mxRectangle width="30" height="30" as="alternateBounds" />
          </mxGeometry>
        </mxCell>
        <mxCell id="KKD2eMfDHWxA5FH26lHS-22" value="Gender" style="shape=partialRectangle;connectable=0;fillColor=none;top=0;left=0;bottom=0;right=0;align=left;spacingLeft=6;overflow=hidden;whiteSpace=wrap;html=1;labelBackgroundColor=none;strokeColor=#E07A5F;fontColor=#393C56;" parent="KKD2eMfDHWxA5FH26lHS-20" vertex="1">
          <mxGeometry x="30" width="150" height="30" as="geometry">
            <mxRectangle width="150" height="30" as="alternateBounds" />
          </mxGeometry>
        </mxCell>
        <mxCell id="KKD2eMfDHWxA5FH26lHS-23" value="" style="shape=tableRow;horizontal=0;startSize=0;swimlaneHead=0;swimlaneBody=0;fillColor=none;collapsible=0;dropTarget=0;points=[[0,0.5],[1,0.5]];portConstraint=eastwest;top=0;left=0;right=0;bottom=0;labelBackgroundColor=none;strokeColor=#E07A5F;fontColor=#393C56;" parent="KKD2eMfDHWxA5FH26lHS-13" vertex="1">
          <mxGeometry y="110" width="180" height="30" as="geometry" />
        </mxCell>
        <mxCell id="KKD2eMfDHWxA5FH26lHS-24" value="" style="shape=partialRectangle;connectable=0;fillColor=none;top=0;left=0;bottom=0;right=0;editable=1;overflow=hidden;whiteSpace=wrap;html=1;labelBackgroundColor=none;strokeColor=#E07A5F;fontColor=#393C56;" parent="KKD2eMfDHWxA5FH26lHS-23" vertex="1">
          <mxGeometry width="30" height="30" as="geometry">
            <mxRectangle width="30" height="30" as="alternateBounds" />
          </mxGeometry>
        </mxCell>
        <mxCell id="KKD2eMfDHWxA5FH26lHS-25" value="Profession" style="shape=partialRectangle;connectable=0;fillColor=none;top=0;left=0;bottom=0;right=0;align=left;spacingLeft=6;overflow=hidden;whiteSpace=wrap;html=1;labelBackgroundColor=none;strokeColor=#E07A5F;fontColor=#393C56;" parent="KKD2eMfDHWxA5FH26lHS-23" vertex="1">
          <mxGeometry x="30" width="150" height="30" as="geometry">
            <mxRectangle width="150" height="30" as="alternateBounds" />
          </mxGeometry>
        </mxCell>
        <mxCell id="KKD2eMfDHWxA5FH26lHS-26" value="" style="shape=tableRow;horizontal=0;startSize=0;swimlaneHead=0;swimlaneBody=0;fillColor=none;collapsible=0;dropTarget=0;points=[[0,0.5],[1,0.5]];portConstraint=eastwest;top=0;left=0;right=0;bottom=0;labelBackgroundColor=none;strokeColor=#E07A5F;fontColor=#393C56;" parent="KKD2eMfDHWxA5FH26lHS-13" vertex="1">
          <mxGeometry y="140" width="180" height="30" as="geometry" />
        </mxCell>
        <mxCell id="KKD2eMfDHWxA5FH26lHS-27" value="" style="shape=partialRectangle;connectable=0;fillColor=none;top=0;left=0;bottom=0;right=0;editable=1;overflow=hidden;whiteSpace=wrap;html=1;labelBackgroundColor=none;strokeColor=#E07A5F;fontColor=#393C56;" parent="KKD2eMfDHWxA5FH26lHS-26" vertex="1">
          <mxGeometry width="30" height="30" as="geometry">
            <mxRectangle width="30" height="30" as="alternateBounds" />
          </mxGeometry>
        </mxCell>
        <mxCell id="KKD2eMfDHWxA5FH26lHS-28" value="Mailing Address" style="shape=partialRectangle;connectable=0;fillColor=none;top=0;left=0;bottom=0;right=0;align=left;spacingLeft=6;overflow=hidden;whiteSpace=wrap;html=1;labelBackgroundColor=none;strokeColor=#E07A5F;fontColor=#393C56;" parent="KKD2eMfDHWxA5FH26lHS-26" vertex="1">
          <mxGeometry x="30" width="150" height="30" as="geometry">
            <mxRectangle width="150" height="30" as="alternateBounds" />
          </mxGeometry>
        </mxCell>
        <mxCell id="KKD2eMfDHWxA5FH26lHS-29" value="" style="shape=tableRow;horizontal=0;startSize=0;swimlaneHead=0;swimlaneBody=0;fillColor=none;collapsible=0;dropTarget=0;points=[[0,0.5],[1,0.5]];portConstraint=eastwest;top=0;left=0;right=0;bottom=0;labelBackgroundColor=none;strokeColor=#E07A5F;fontColor=#393C56;" parent="KKD2eMfDHWxA5FH26lHS-13" vertex="1">
          <mxGeometry y="170" width="180" height="30" as="geometry" />
        </mxCell>
        <mxCell id="KKD2eMfDHWxA5FH26lHS-30" value="" style="shape=partialRectangle;connectable=0;fillColor=none;top=0;left=0;bottom=0;right=0;editable=1;overflow=hidden;whiteSpace=wrap;html=1;labelBackgroundColor=none;strokeColor=#E07A5F;fontColor=#393C56;" parent="KKD2eMfDHWxA5FH26lHS-29" vertex="1">
          <mxGeometry width="30" height="30" as="geometry">
            <mxRectangle width="30" height="30" as="alternateBounds" />
          </mxGeometry>
        </mxCell>
        <mxCell id="KKD2eMfDHWxA5FH26lHS-31" value="Email" style="shape=partialRectangle;connectable=0;fillColor=none;top=0;left=0;bottom=0;right=0;align=left;spacingLeft=6;overflow=hidden;whiteSpace=wrap;html=1;labelBackgroundColor=none;strokeColor=#E07A5F;fontColor=#393C56;" parent="KKD2eMfDHWxA5FH26lHS-29" vertex="1">
          <mxGeometry x="30" width="150" height="30" as="geometry">
            <mxRectangle width="150" height="30" as="alternateBounds" />
          </mxGeometry>
        </mxCell>
        <mxCell id="KKD2eMfDHWxA5FH26lHS-32" value="" style="shape=tableRow;horizontal=0;startSize=0;swimlaneHead=0;swimlaneBody=0;fillColor=none;collapsible=0;dropTarget=0;points=[[0,0.5],[1,0.5]];portConstraint=eastwest;top=0;left=0;right=0;bottom=0;labelBackgroundColor=none;strokeColor=#E07A5F;fontColor=#393C56;" parent="KKD2eMfDHWxA5FH26lHS-13" vertex="1">
          <mxGeometry y="200" width="180" height="30" as="geometry" />
        </mxCell>
        <mxCell id="KKD2eMfDHWxA5FH26lHS-33" value="" style="shape=partialRectangle;connectable=0;fillColor=none;top=0;left=0;bottom=0;right=0;editable=1;overflow=hidden;whiteSpace=wrap;html=1;labelBackgroundColor=none;strokeColor=#E07A5F;fontColor=#393C56;" parent="KKD2eMfDHWxA5FH26lHS-32" vertex="1">
          <mxGeometry width="30" height="30" as="geometry">
            <mxRectangle width="30" height="30" as="alternateBounds" />
          </mxGeometry>
        </mxCell>
        <mxCell id="KKD2eMfDHWxA5FH26lHS-34" value="Phone Number" style="shape=partialRectangle;connectable=0;fillColor=none;top=0;left=0;bottom=0;right=0;align=left;spacingLeft=6;overflow=hidden;whiteSpace=wrap;html=1;labelBackgroundColor=none;strokeColor=#E07A5F;fontColor=#393C56;" parent="KKD2eMfDHWxA5FH26lHS-32" vertex="1">
          <mxGeometry x="30" width="150" height="30" as="geometry">
            <mxRectangle width="150" height="30" as="alternateBounds" />
          </mxGeometry>
        </mxCell>
        <mxCell id="KKD2eMfDHWxA5FH26lHS-35" value="" style="shape=tableRow;horizontal=0;startSize=0;swimlaneHead=0;swimlaneBody=0;fillColor=none;collapsible=0;dropTarget=0;points=[[0,0.5],[1,0.5]];portConstraint=eastwest;top=0;left=0;right=0;bottom=0;labelBackgroundColor=none;strokeColor=#E07A5F;fontColor=#393C56;" parent="KKD2eMfDHWxA5FH26lHS-13" vertex="1">
          <mxGeometry y="230" width="180" height="30" as="geometry" />
        </mxCell>
        <mxCell id="KKD2eMfDHWxA5FH26lHS-36" value="" style="shape=partialRectangle;connectable=0;fillColor=none;top=0;left=0;bottom=0;right=0;editable=1;overflow=hidden;whiteSpace=wrap;html=1;labelBackgroundColor=none;strokeColor=#E07A5F;fontColor=#393C56;" parent="KKD2eMfDHWxA5FH26lHS-35" vertex="1">
          <mxGeometry width="30" height="30" as="geometry">
            <mxRectangle width="30" height="30" as="alternateBounds" />
          </mxGeometry>
        </mxCell>
        <mxCell id="KKD2eMfDHWxA5FH26lHS-37" value="OnMailingList (Boolean)" style="shape=partialRectangle;connectable=0;fillColor=none;top=0;left=0;bottom=0;right=0;align=left;spacingLeft=6;overflow=hidden;whiteSpace=wrap;html=1;labelBackgroundColor=none;strokeColor=#E07A5F;fontColor=#393C56;" parent="KKD2eMfDHWxA5FH26lHS-35" vertex="1">
          <mxGeometry x="30" width="150" height="30" as="geometry">
            <mxRectangle width="150" height="30" as="alternateBounds" />
          </mxGeometry>
        </mxCell>
        <mxCell id="KKD2eMfDHWxA5FH26lHS-38" value="Client" style="shape=table;startSize=30;container=1;collapsible=1;childLayout=tableLayout;fixedRows=1;rowLines=0;fontStyle=1;align=center;resizeLast=1;html=1;labelBackgroundColor=none;fillColor=#F2CC8F;strokeColor=#E07A5F;fontColor=#393C56;" parent="1" vertex="1">
          <mxGeometry x="310" y="350" width="190" height="130" as="geometry" />
        </mxCell>
        <mxCell id="KKD2eMfDHWxA5FH26lHS-42" value="" style="shape=tableRow;horizontal=0;startSize=0;swimlaneHead=0;swimlaneBody=0;fillColor=none;collapsible=0;dropTarget=0;points=[[0,0.5],[1,0.5]];portConstraint=eastwest;top=0;left=0;right=0;bottom=0;labelBackgroundColor=none;strokeColor=#E07A5F;fontColor=#393C56;" parent="KKD2eMfDHWxA5FH26lHS-38" vertex="1">
          <mxGeometry y="30" width="190" height="30" as="geometry" />
        </mxCell>
        <mxCell id="KKD2eMfDHWxA5FH26lHS-43" value="" style="shape=partialRectangle;connectable=0;fillColor=none;top=0;left=0;bottom=0;right=0;editable=1;overflow=hidden;whiteSpace=wrap;html=1;labelBackgroundColor=none;strokeColor=#E07A5F;fontColor=#393C56;" parent="KKD2eMfDHWxA5FH26lHS-42" vertex="1">
          <mxGeometry width="30" height="30" as="geometry">
            <mxRectangle width="30" height="30" as="alternateBounds" />
          </mxGeometry>
        </mxCell>
        <mxCell id="KKD2eMfDHWxA5FH26lHS-44" value="DoctorName" style="shape=partialRectangle;connectable=0;fillColor=none;top=0;left=0;bottom=0;right=0;align=left;spacingLeft=6;overflow=hidden;whiteSpace=wrap;html=1;labelBackgroundColor=none;strokeColor=#E07A5F;fontColor=#393C56;" parent="KKD2eMfDHWxA5FH26lHS-42" vertex="1">
          <mxGeometry x="30" width="160" height="30" as="geometry">
            <mxRectangle width="160" height="30" as="alternateBounds" />
          </mxGeometry>
        </mxCell>
        <mxCell id="KKD2eMfDHWxA5FH26lHS-45" value="" style="shape=tableRow;horizontal=0;startSize=0;swimlaneHead=0;swimlaneBody=0;fillColor=none;collapsible=0;dropTarget=0;points=[[0,0.5],[1,0.5]];portConstraint=eastwest;top=0;left=0;right=0;bottom=0;labelBackgroundColor=none;strokeColor=#E07A5F;fontColor=#393C56;" parent="KKD2eMfDHWxA5FH26lHS-38" vertex="1">
          <mxGeometry y="60" width="190" height="30" as="geometry" />
        </mxCell>
        <mxCell id="KKD2eMfDHWxA5FH26lHS-46" value="" style="shape=partialRectangle;connectable=0;fillColor=none;top=0;left=0;bottom=0;right=0;editable=1;overflow=hidden;whiteSpace=wrap;html=1;labelBackgroundColor=none;strokeColor=#E07A5F;fontColor=#393C56;" parent="KKD2eMfDHWxA5FH26lHS-45" vertex="1">
          <mxGeometry width="30" height="30" as="geometry">
            <mxRectangle width="30" height="30" as="alternateBounds" />
          </mxGeometry>
        </mxCell>
        <mxCell id="KKD2eMfDHWxA5FH26lHS-47" value="DoctorPhone" style="shape=partialRectangle;connectable=0;fillColor=none;top=0;left=0;bottom=0;right=0;align=left;spacingLeft=6;overflow=hidden;whiteSpace=wrap;html=1;labelBackgroundColor=none;strokeColor=#E07A5F;fontColor=#393C56;" parent="KKD2eMfDHWxA5FH26lHS-45" vertex="1">
          <mxGeometry x="30" width="160" height="30" as="geometry">
            <mxRectangle width="160" height="30" as="alternateBounds" />
          </mxGeometry>
        </mxCell>
        <mxCell id="KKD2eMfDHWxA5FH26lHS-48" value="" style="shape=tableRow;horizontal=0;startSize=0;swimlaneHead=0;swimlaneBody=0;fillColor=none;collapsible=0;dropTarget=0;points=[[0,0.5],[1,0.5]];portConstraint=eastwest;top=0;left=0;right=0;bottom=0;labelBackgroundColor=none;strokeColor=#E07A5F;fontColor=#393C56;" parent="KKD2eMfDHWxA5FH26lHS-38" vertex="1">
          <mxGeometry y="90" width="190" height="30" as="geometry" />
        </mxCell>
        <mxCell id="KKD2eMfDHWxA5FH26lHS-49" value="" style="shape=partialRectangle;connectable=0;fillColor=none;top=0;left=0;bottom=0;right=0;editable=1;overflow=hidden;whiteSpace=wrap;html=1;labelBackgroundColor=none;strokeColor=#E07A5F;fontColor=#393C56;" parent="KKD2eMfDHWxA5FH26lHS-48" vertex="1">
          <mxGeometry width="30" height="30" as="geometry">
            <mxRectangle width="30" height="30" as="alternateBounds" />
          </mxGeometry>
        </mxCell>
        <mxCell id="KKD2eMfDHWxA5FH26lHS-50" value="AssignedDate" style="shape=partialRectangle;connectable=0;fillColor=none;top=0;left=0;bottom=0;right=0;align=left;spacingLeft=6;overflow=hidden;whiteSpace=wrap;html=1;labelBackgroundColor=none;strokeColor=#E07A5F;fontColor=#393C56;" parent="KKD2eMfDHWxA5FH26lHS-48" vertex="1">
          <mxGeometry x="30" width="140" height="30" as="geometry">
            <mxRectangle width="140" height="30" as="alternateBounds" />
          </mxGeometry>
        </mxCell>
        <mxCell id="KKD2eMfDHWxA5FH26lHS-225" value="" style="line;strokeWidth=1;rotatable=0;dashed=0;labelPosition=right;align=left;verticalAlign=middle;spacingTop=0;spacingLeft=6;points=[];portConstraint=eastwest;labelBackgroundColor=none;fillColor=#F2CC8F;strokeColor=#E07A5F;fontColor=#393C56;" parent="KKD2eMfDHWxA5FH26lHS-48" vertex="1">
          <mxGeometry x="170" width="20" height="30" as="geometry">
            <mxRectangle width="20" height="30" as="alternateBounds" />
          </mxGeometry>
        </mxCell>
        <mxCell id="KKD2eMfDHWxA5FH26lHS-203" style="edgeStyle=orthogonalEdgeStyle;rounded=0;orthogonalLoop=1;jettySize=auto;html=1;entryX=0.5;entryY=1;entryDx=0;entryDy=0;labelBackgroundColor=none;fontColor=default;strokeColor=#E07A5F;" parent="1" source="KKD2eMfDHWxA5FH26lHS-51" target="KKD2eMfDHWxA5FH26lHS-13" edge="1">
          <mxGeometry relative="1" as="geometry">
            <mxPoint x="610" y="250" as="targetPoint" />
          </mxGeometry>
        </mxCell>
        <mxCell id="KKD2eMfDHWxA5FH26lHS-51" value="Volunteer" style="shape=table;startSize=30;container=1;collapsible=1;childLayout=tableLayout;fixedRows=1;rowLines=0;fontStyle=1;align=center;resizeLast=1;html=1;labelBackgroundColor=none;fillColor=#F2CC8F;strokeColor=#E07A5F;fontColor=#393C56;" parent="1" vertex="1">
          <mxGeometry x="510" y="500" width="180" height="120" as="geometry" />
        </mxCell>
        <mxCell id="KKD2eMfDHWxA5FH26lHS-55" value="" style="shape=tableRow;horizontal=0;startSize=0;swimlaneHead=0;swimlaneBody=0;fillColor=none;collapsible=0;dropTarget=0;points=[[0,0.5],[1,0.5]];portConstraint=eastwest;top=0;left=0;right=0;bottom=0;labelBackgroundColor=none;strokeColor=#E07A5F;fontColor=#393C56;" parent="KKD2eMfDHWxA5FH26lHS-51" vertex="1">
          <mxGeometry y="30" width="180" height="30" as="geometry" />
        </mxCell>
        <mxCell id="KKD2eMfDHWxA5FH26lHS-56" value="" style="shape=partialRectangle;connectable=0;fillColor=none;top=0;left=0;bottom=0;right=0;editable=1;overflow=hidden;whiteSpace=wrap;html=1;labelBackgroundColor=none;strokeColor=#E07A5F;fontColor=#393C56;" parent="KKD2eMfDHWxA5FH26lHS-55" vertex="1">
          <mxGeometry width="30" height="30" as="geometry">
            <mxRectangle width="30" height="30" as="alternateBounds" />
          </mxGeometry>
        </mxCell>
        <mxCell id="KKD2eMfDHWxA5FH26lHS-57" value="JoiningDate" style="shape=partialRectangle;connectable=0;fillColor=none;top=0;left=0;bottom=0;right=0;align=left;spacingLeft=6;overflow=hidden;whiteSpace=wrap;html=1;labelBackgroundColor=none;strokeColor=#E07A5F;fontColor=#393C56;" parent="KKD2eMfDHWxA5FH26lHS-55" vertex="1">
          <mxGeometry x="30" width="150" height="30" as="geometry">
            <mxRectangle width="150" height="30" as="alternateBounds" />
          </mxGeometry>
        </mxCell>
        <mxCell id="KKD2eMfDHWxA5FH26lHS-58" value="" style="shape=tableRow;horizontal=0;startSize=0;swimlaneHead=0;swimlaneBody=0;fillColor=none;collapsible=0;dropTarget=0;points=[[0,0.5],[1,0.5]];portConstraint=eastwest;top=0;left=0;right=0;bottom=0;labelBackgroundColor=none;strokeColor=#E07A5F;fontColor=#393C56;" parent="KKD2eMfDHWxA5FH26lHS-51" vertex="1">
          <mxGeometry y="60" width="180" height="30" as="geometry" />
        </mxCell>
        <mxCell id="KKD2eMfDHWxA5FH26lHS-59" value="" style="shape=partialRectangle;connectable=0;fillColor=none;top=0;left=0;bottom=0;right=0;editable=1;overflow=hidden;whiteSpace=wrap;html=1;labelBackgroundColor=none;strokeColor=#E07A5F;fontColor=#393C56;" parent="KKD2eMfDHWxA5FH26lHS-58" vertex="1">
          <mxGeometry width="30" height="30" as="geometry">
            <mxRectangle width="30" height="30" as="alternateBounds" />
          </mxGeometry>
        </mxCell>
        <mxCell id="KKD2eMfDHWxA5FH26lHS-60" value="LastTrainingData" style="shape=partialRectangle;connectable=0;fillColor=none;top=0;left=0;bottom=0;right=0;align=left;spacingLeft=6;overflow=hidden;whiteSpace=wrap;html=1;labelBackgroundColor=none;strokeColor=#E07A5F;fontColor=#393C56;" parent="KKD2eMfDHWxA5FH26lHS-58" vertex="1">
          <mxGeometry x="30" width="150" height="30" as="geometry">
            <mxRectangle width="150" height="30" as="alternateBounds" />
          </mxGeometry>
        </mxCell>
        <mxCell id="KKD2eMfDHWxA5FH26lHS-61" value="" style="shape=tableRow;horizontal=0;startSize=0;swimlaneHead=0;swimlaneBody=0;fillColor=none;collapsible=0;dropTarget=0;points=[[0,0.5],[1,0.5]];portConstraint=eastwest;top=0;left=0;right=0;bottom=0;labelBackgroundColor=none;strokeColor=#E07A5F;fontColor=#393C56;" parent="KKD2eMfDHWxA5FH26lHS-51" vertex="1">
          <mxGeometry y="90" width="180" height="30" as="geometry" />
        </mxCell>
        <mxCell id="KKD2eMfDHWxA5FH26lHS-62" value="" style="shape=partialRectangle;connectable=0;fillColor=none;top=0;left=0;bottom=0;right=0;editable=1;overflow=hidden;whiteSpace=wrap;html=1;labelBackgroundColor=none;strokeColor=#E07A5F;fontColor=#393C56;" parent="KKD2eMfDHWxA5FH26lHS-61" vertex="1">
          <mxGeometry width="30" height="30" as="geometry">
            <mxRectangle width="30" height="30" as="alternateBounds" />
          </mxGeometry>
        </mxCell>
        <mxCell id="KKD2eMfDHWxA5FH26lHS-63" value="LastTrainingLocation" style="shape=partialRectangle;connectable=0;fillColor=none;top=0;left=0;bottom=0;right=0;align=left;spacingLeft=6;overflow=hidden;whiteSpace=wrap;html=1;labelBackgroundColor=none;strokeColor=#E07A5F;fontColor=#393C56;" parent="KKD2eMfDHWxA5FH26lHS-61" vertex="1">
          <mxGeometry x="30" width="150" height="30" as="geometry">
            <mxRectangle width="150" height="30" as="alternateBounds" />
          </mxGeometry>
        </mxCell>
        <mxCell id="KKD2eMfDHWxA5FH26lHS-204" style="edgeStyle=orthogonalEdgeStyle;rounded=0;orthogonalLoop=1;jettySize=auto;html=1;labelBackgroundColor=none;fontColor=default;strokeColor=#E07A5F;" parent="1" source="KKD2eMfDHWxA5FH26lHS-64" edge="1">
          <mxGeometry relative="1" as="geometry">
            <mxPoint x="629" y="145" as="targetPoint" />
          </mxGeometry>
        </mxCell>
        <mxCell id="KKD2eMfDHWxA5FH26lHS-64" value="Employee" style="shape=table;startSize=30;container=1;collapsible=1;childLayout=tableLayout;fixedRows=1;rowLines=0;fontStyle=1;align=center;resizeLast=1;html=1;labelBackgroundColor=none;fillColor=#F2CC8F;strokeColor=#E07A5F;fontColor=#393C56;" parent="1" vertex="1">
          <mxGeometry x="700" y="380" width="180" height="120" as="geometry" />
        </mxCell>
        <mxCell id="KKD2eMfDHWxA5FH26lHS-68" value="" style="shape=tableRow;horizontal=0;startSize=0;swimlaneHead=0;swimlaneBody=0;fillColor=none;collapsible=0;dropTarget=0;points=[[0,0.5],[1,0.5]];portConstraint=eastwest;top=0;left=0;right=0;bottom=0;labelBackgroundColor=none;strokeColor=#E07A5F;fontColor=#393C56;" parent="KKD2eMfDHWxA5FH26lHS-64" vertex="1">
          <mxGeometry y="30" width="180" height="30" as="geometry" />
        </mxCell>
        <mxCell id="KKD2eMfDHWxA5FH26lHS-69" value="" style="shape=partialRectangle;connectable=0;fillColor=none;top=0;left=0;bottom=0;right=0;editable=1;overflow=hidden;whiteSpace=wrap;html=1;labelBackgroundColor=none;strokeColor=#E07A5F;fontColor=#393C56;" parent="KKD2eMfDHWxA5FH26lHS-68" vertex="1">
          <mxGeometry width="30" height="30" as="geometry">
            <mxRectangle width="30" height="30" as="alternateBounds" />
          </mxGeometry>
        </mxCell>
        <mxCell id="KKD2eMfDHWxA5FH26lHS-70" value="Salary" style="shape=partialRectangle;connectable=0;fillColor=none;top=0;left=0;bottom=0;right=0;align=left;spacingLeft=6;overflow=hidden;whiteSpace=wrap;html=1;labelBackgroundColor=none;strokeColor=#E07A5F;fontColor=#393C56;" parent="KKD2eMfDHWxA5FH26lHS-68" vertex="1">
          <mxGeometry x="30" width="150" height="30" as="geometry">
            <mxRectangle width="150" height="30" as="alternateBounds" />
          </mxGeometry>
        </mxCell>
        <mxCell id="KKD2eMfDHWxA5FH26lHS-71" value="" style="shape=tableRow;horizontal=0;startSize=0;swimlaneHead=0;swimlaneBody=0;fillColor=none;collapsible=0;dropTarget=0;points=[[0,0.5],[1,0.5]];portConstraint=eastwest;top=0;left=0;right=0;bottom=0;labelBackgroundColor=none;strokeColor=#E07A5F;fontColor=#393C56;" parent="KKD2eMfDHWxA5FH26lHS-64" vertex="1">
          <mxGeometry y="60" width="180" height="30" as="geometry" />
        </mxCell>
        <mxCell id="KKD2eMfDHWxA5FH26lHS-72" value="" style="shape=partialRectangle;connectable=0;fillColor=none;top=0;left=0;bottom=0;right=0;editable=1;overflow=hidden;whiteSpace=wrap;html=1;labelBackgroundColor=none;strokeColor=#E07A5F;fontColor=#393C56;" parent="KKD2eMfDHWxA5FH26lHS-71" vertex="1">
          <mxGeometry width="30" height="30" as="geometry">
            <mxRectangle width="30" height="30" as="alternateBounds" />
          </mxGeometry>
        </mxCell>
        <mxCell id="KKD2eMfDHWxA5FH26lHS-73" value="MaritialStatus" style="shape=partialRectangle;connectable=0;fillColor=none;top=0;left=0;bottom=0;right=0;align=left;spacingLeft=6;overflow=hidden;whiteSpace=wrap;html=1;labelBackgroundColor=none;strokeColor=#E07A5F;fontColor=#393C56;" parent="KKD2eMfDHWxA5FH26lHS-71" vertex="1">
          <mxGeometry x="30" width="150" height="30" as="geometry">
            <mxRectangle width="150" height="30" as="alternateBounds" />
          </mxGeometry>
        </mxCell>
        <mxCell id="KKD2eMfDHWxA5FH26lHS-74" value="" style="shape=tableRow;horizontal=0;startSize=0;swimlaneHead=0;swimlaneBody=0;fillColor=none;collapsible=0;dropTarget=0;points=[[0,0.5],[1,0.5]];portConstraint=eastwest;top=0;left=0;right=0;bottom=0;labelBackgroundColor=none;strokeColor=#E07A5F;fontColor=#393C56;" parent="KKD2eMfDHWxA5FH26lHS-64" vertex="1">
          <mxGeometry y="90" width="180" height="30" as="geometry" />
        </mxCell>
        <mxCell id="KKD2eMfDHWxA5FH26lHS-75" value="" style="shape=partialRectangle;connectable=0;fillColor=none;top=0;left=0;bottom=0;right=0;editable=1;overflow=hidden;whiteSpace=wrap;html=1;labelBackgroundColor=none;strokeColor=#E07A5F;fontColor=#393C56;" parent="KKD2eMfDHWxA5FH26lHS-74" vertex="1">
          <mxGeometry width="30" height="30" as="geometry">
            <mxRectangle width="30" height="30" as="alternateBounds" />
          </mxGeometry>
        </mxCell>
        <mxCell id="KKD2eMfDHWxA5FH26lHS-76" value="HireDate" style="shape=partialRectangle;connectable=0;fillColor=none;top=0;left=0;bottom=0;right=0;align=left;spacingLeft=6;overflow=hidden;whiteSpace=wrap;html=1;labelBackgroundColor=none;strokeColor=#E07A5F;fontColor=#393C56;" parent="KKD2eMfDHWxA5FH26lHS-74" vertex="1">
          <mxGeometry x="30" width="150" height="30" as="geometry">
            <mxRectangle width="150" height="30" as="alternateBounds" />
          </mxGeometry>
        </mxCell>
        <mxCell id="KKD2eMfDHWxA5FH26lHS-77" value="Donor" style="shape=table;startSize=30;container=1;collapsible=1;childLayout=tableLayout;fixedRows=1;rowLines=0;fontStyle=1;align=center;resizeLast=1;html=1;labelBackgroundColor=none;fillColor=#F2CC8F;strokeColor=#E07A5F;fontColor=#393C56;" parent="1" vertex="1">
          <mxGeometry x="710" y="310" width="180" height="60" as="geometry" />
        </mxCell>
        <mxCell id="KKD2eMfDHWxA5FH26lHS-87" value="" style="shape=tableRow;horizontal=0;startSize=0;swimlaneHead=0;swimlaneBody=0;fillColor=none;collapsible=0;dropTarget=0;points=[[0,0.5],[1,0.5]];portConstraint=eastwest;top=0;left=0;right=0;bottom=0;labelBackgroundColor=none;strokeColor=#E07A5F;fontColor=#393C56;" parent="KKD2eMfDHWxA5FH26lHS-77" vertex="1">
          <mxGeometry y="30" width="180" height="30" as="geometry" />
        </mxCell>
        <mxCell id="KKD2eMfDHWxA5FH26lHS-88" value="" style="shape=partialRectangle;connectable=0;fillColor=none;top=0;left=0;bottom=0;right=0;editable=1;overflow=hidden;whiteSpace=wrap;html=1;labelBackgroundColor=none;strokeColor=#E07A5F;fontColor=#393C56;" parent="KKD2eMfDHWxA5FH26lHS-87" vertex="1">
          <mxGeometry width="30" height="30" as="geometry">
            <mxRectangle width="30" height="30" as="alternateBounds" />
          </mxGeometry>
        </mxCell>
        <mxCell id="KKD2eMfDHWxA5FH26lHS-89" value="Anonymous" style="shape=partialRectangle;connectable=0;fillColor=none;top=0;left=0;bottom=0;right=0;align=left;spacingLeft=6;overflow=hidden;whiteSpace=wrap;html=1;labelBackgroundColor=none;strokeColor=#E07A5F;fontColor=#393C56;" parent="KKD2eMfDHWxA5FH26lHS-87" vertex="1">
          <mxGeometry x="30" width="150" height="30" as="geometry">
            <mxRectangle width="150" height="30" as="alternateBounds" />
          </mxGeometry>
        </mxCell>
        <mxCell id="KKD2eMfDHWxA5FH26lHS-93" value="Team" style="shape=table;startSize=30;container=1;collapsible=1;childLayout=tableLayout;fixedRows=1;rowLines=0;fontStyle=1;align=center;resizeLast=1;html=1;labelBackgroundColor=none;fillColor=#F2CC8F;strokeColor=#E07A5F;fontColor=#393C56;" parent="1" vertex="1">
          <mxGeometry x="560" y="1100" width="180" height="150" as="geometry" />
        </mxCell>
        <mxCell id="KKD2eMfDHWxA5FH26lHS-94" value="" style="shape=tableRow;horizontal=0;startSize=0;swimlaneHead=0;swimlaneBody=0;fillColor=none;collapsible=0;dropTarget=0;points=[[0,0.5],[1,0.5]];portConstraint=eastwest;top=0;left=0;right=0;bottom=1;labelBackgroundColor=none;strokeColor=#E07A5F;fontColor=#393C56;" parent="KKD2eMfDHWxA5FH26lHS-93" vertex="1">
          <mxGeometry y="30" width="180" height="30" as="geometry" />
        </mxCell>
        <mxCell id="KKD2eMfDHWxA5FH26lHS-95" value="PK" style="shape=partialRectangle;connectable=0;fillColor=none;top=0;left=0;bottom=0;right=0;fontStyle=1;overflow=hidden;whiteSpace=wrap;html=1;labelBackgroundColor=none;strokeColor=#E07A5F;fontColor=#393C56;" parent="KKD2eMfDHWxA5FH26lHS-94" vertex="1">
          <mxGeometry width="30" height="30" as="geometry">
            <mxRectangle width="30" height="30" as="alternateBounds" />
          </mxGeometry>
        </mxCell>
        <mxCell id="KKD2eMfDHWxA5FH26lHS-96" value="TeamID" style="shape=partialRectangle;connectable=0;fillColor=none;top=0;left=0;bottom=0;right=0;align=left;spacingLeft=6;fontStyle=5;overflow=hidden;whiteSpace=wrap;html=1;labelBackgroundColor=none;strokeColor=#E07A5F;fontColor=#393C56;" parent="KKD2eMfDHWxA5FH26lHS-94" vertex="1">
          <mxGeometry x="30" width="150" height="30" as="geometry">
            <mxRectangle width="150" height="30" as="alternateBounds" />
          </mxGeometry>
        </mxCell>
        <mxCell id="KKD2eMfDHWxA5FH26lHS-97" value="" style="shape=tableRow;horizontal=0;startSize=0;swimlaneHead=0;swimlaneBody=0;fillColor=none;collapsible=0;dropTarget=0;points=[[0,0.5],[1,0.5]];portConstraint=eastwest;top=0;left=0;right=0;bottom=0;labelBackgroundColor=none;strokeColor=#E07A5F;fontColor=#393C56;" parent="KKD2eMfDHWxA5FH26lHS-93" vertex="1">
          <mxGeometry y="60" width="180" height="30" as="geometry" />
        </mxCell>
        <mxCell id="KKD2eMfDHWxA5FH26lHS-98" value="" style="shape=partialRectangle;connectable=0;fillColor=none;top=0;left=0;bottom=0;right=0;editable=1;overflow=hidden;whiteSpace=wrap;html=1;labelBackgroundColor=none;strokeColor=#E07A5F;fontColor=#393C56;" parent="KKD2eMfDHWxA5FH26lHS-97" vertex="1">
          <mxGeometry width="30" height="30" as="geometry">
            <mxRectangle width="30" height="30" as="alternateBounds" />
          </mxGeometry>
        </mxCell>
        <mxCell id="KKD2eMfDHWxA5FH26lHS-99" value="Name" style="shape=partialRectangle;connectable=0;fillColor=none;top=0;left=0;bottom=0;right=0;align=left;spacingLeft=6;overflow=hidden;whiteSpace=wrap;html=1;labelBackgroundColor=none;strokeColor=#E07A5F;fontColor=#393C56;" parent="KKD2eMfDHWxA5FH26lHS-97" vertex="1">
          <mxGeometry x="30" width="150" height="30" as="geometry">
            <mxRectangle width="150" height="30" as="alternateBounds" />
          </mxGeometry>
        </mxCell>
        <mxCell id="KKD2eMfDHWxA5FH26lHS-100" value="" style="shape=tableRow;horizontal=0;startSize=0;swimlaneHead=0;swimlaneBody=0;fillColor=none;collapsible=0;dropTarget=0;points=[[0,0.5],[1,0.5]];portConstraint=eastwest;top=0;left=0;right=0;bottom=0;labelBackgroundColor=none;strokeColor=#E07A5F;fontColor=#393C56;" parent="KKD2eMfDHWxA5FH26lHS-93" vertex="1">
          <mxGeometry y="90" width="180" height="30" as="geometry" />
        </mxCell>
        <mxCell id="KKD2eMfDHWxA5FH26lHS-101" value="" style="shape=partialRectangle;connectable=0;fillColor=none;top=0;left=0;bottom=0;right=0;editable=1;overflow=hidden;whiteSpace=wrap;html=1;labelBackgroundColor=none;strokeColor=#E07A5F;fontColor=#393C56;" parent="KKD2eMfDHWxA5FH26lHS-100" vertex="1">
          <mxGeometry width="30" height="30" as="geometry">
            <mxRectangle width="30" height="30" as="alternateBounds" />
          </mxGeometry>
        </mxCell>
        <mxCell id="KKD2eMfDHWxA5FH26lHS-102" value="Type" style="shape=partialRectangle;connectable=0;fillColor=none;top=0;left=0;bottom=0;right=0;align=left;spacingLeft=6;overflow=hidden;whiteSpace=wrap;html=1;labelBackgroundColor=none;strokeColor=#E07A5F;fontColor=#393C56;" parent="KKD2eMfDHWxA5FH26lHS-100" vertex="1">
          <mxGeometry x="30" width="150" height="30" as="geometry">
            <mxRectangle width="150" height="30" as="alternateBounds" />
          </mxGeometry>
        </mxCell>
        <mxCell id="KKD2eMfDHWxA5FH26lHS-103" value="" style="shape=tableRow;horizontal=0;startSize=0;swimlaneHead=0;swimlaneBody=0;fillColor=none;collapsible=0;dropTarget=0;points=[[0,0.5],[1,0.5]];portConstraint=eastwest;top=0;left=0;right=0;bottom=0;labelBackgroundColor=none;strokeColor=#E07A5F;fontColor=#393C56;" parent="KKD2eMfDHWxA5FH26lHS-93" vertex="1">
          <mxGeometry y="120" width="180" height="30" as="geometry" />
        </mxCell>
        <mxCell id="KKD2eMfDHWxA5FH26lHS-104" value="" style="shape=partialRectangle;connectable=0;fillColor=none;top=0;left=0;bottom=0;right=0;editable=1;overflow=hidden;whiteSpace=wrap;html=1;labelBackgroundColor=none;strokeColor=#E07A5F;fontColor=#393C56;" parent="KKD2eMfDHWxA5FH26lHS-103" vertex="1">
          <mxGeometry width="30" height="30" as="geometry">
            <mxRectangle width="30" height="30" as="alternateBounds" />
          </mxGeometry>
        </mxCell>
        <mxCell id="KKD2eMfDHWxA5FH26lHS-105" value="FormationDate" style="shape=partialRectangle;connectable=0;fillColor=none;top=0;left=0;bottom=0;right=0;align=left;spacingLeft=6;overflow=hidden;whiteSpace=wrap;html=1;labelBackgroundColor=none;strokeColor=#E07A5F;fontColor=#393C56;" parent="KKD2eMfDHWxA5FH26lHS-103" vertex="1">
          <mxGeometry x="30" width="150" height="30" as="geometry">
            <mxRectangle width="150" height="30" as="alternateBounds" />
          </mxGeometry>
        </mxCell>
        <mxCell id="KKD2eMfDHWxA5FH26lHS-119" value="Insurance Policy" style="shape=table;startSize=30;container=1;collapsible=1;childLayout=tableLayout;fixedRows=1;rowLines=0;fontStyle=1;align=center;resizeLast=1;html=1;labelBackgroundColor=none;fillColor=#F2CC8F;strokeColor=#E07A5F;fontColor=#393C56;" parent="1" vertex="1">
          <mxGeometry x="-172" y="790" width="180" height="150" as="geometry" />
        </mxCell>
        <mxCell id="KKD2eMfDHWxA5FH26lHS-120" value="" style="shape=tableRow;horizontal=0;startSize=0;swimlaneHead=0;swimlaneBody=0;fillColor=none;collapsible=0;dropTarget=0;points=[[0,0.5],[1,0.5]];portConstraint=eastwest;top=0;left=0;right=0;bottom=1;labelBackgroundColor=none;strokeColor=#E07A5F;fontColor=#393C56;" parent="KKD2eMfDHWxA5FH26lHS-119" vertex="1">
          <mxGeometry y="30" width="180" height="30" as="geometry" />
        </mxCell>
        <mxCell id="KKD2eMfDHWxA5FH26lHS-121" value="PK" style="shape=partialRectangle;connectable=0;fillColor=none;top=0;left=0;bottom=0;right=0;fontStyle=1;overflow=hidden;whiteSpace=wrap;html=1;labelBackgroundColor=none;strokeColor=#E07A5F;fontColor=#393C56;" parent="KKD2eMfDHWxA5FH26lHS-120" vertex="1">
          <mxGeometry width="30" height="30" as="geometry">
            <mxRectangle width="30" height="30" as="alternateBounds" />
          </mxGeometry>
        </mxCell>
        <mxCell id="KKD2eMfDHWxA5FH26lHS-122" value="PolicyID" style="shape=partialRectangle;connectable=0;fillColor=none;top=0;left=0;bottom=0;right=0;align=left;spacingLeft=6;fontStyle=5;overflow=hidden;whiteSpace=wrap;html=1;labelBackgroundColor=none;strokeColor=#E07A5F;fontColor=#393C56;" parent="KKD2eMfDHWxA5FH26lHS-120" vertex="1">
          <mxGeometry x="30" width="150" height="30" as="geometry">
            <mxRectangle width="150" height="30" as="alternateBounds" />
          </mxGeometry>
        </mxCell>
        <mxCell id="KKD2eMfDHWxA5FH26lHS-123" value="" style="shape=tableRow;horizontal=0;startSize=0;swimlaneHead=0;swimlaneBody=0;fillColor=none;collapsible=0;dropTarget=0;points=[[0,0.5],[1,0.5]];portConstraint=eastwest;top=0;left=0;right=0;bottom=0;labelBackgroundColor=none;strokeColor=#E07A5F;fontColor=#393C56;" parent="KKD2eMfDHWxA5FH26lHS-119" vertex="1">
          <mxGeometry y="60" width="180" height="30" as="geometry" />
        </mxCell>
        <mxCell id="KKD2eMfDHWxA5FH26lHS-124" value="" style="shape=partialRectangle;connectable=0;fillColor=none;top=0;left=0;bottom=0;right=0;editable=1;overflow=hidden;whiteSpace=wrap;html=1;labelBackgroundColor=none;strokeColor=#E07A5F;fontColor=#393C56;" parent="KKD2eMfDHWxA5FH26lHS-123" vertex="1">
          <mxGeometry width="30" height="30" as="geometry">
            <mxRectangle width="30" height="30" as="alternateBounds" />
          </mxGeometry>
        </mxCell>
        <mxCell id="KKD2eMfDHWxA5FH26lHS-125" value="ProviderName" style="shape=partialRectangle;connectable=0;fillColor=none;top=0;left=0;bottom=0;right=0;align=left;spacingLeft=6;overflow=hidden;whiteSpace=wrap;html=1;labelBackgroundColor=none;strokeColor=#E07A5F;fontColor=#393C56;" parent="KKD2eMfDHWxA5FH26lHS-123" vertex="1">
          <mxGeometry x="30" width="150" height="30" as="geometry">
            <mxRectangle width="150" height="30" as="alternateBounds" />
          </mxGeometry>
        </mxCell>
        <mxCell id="KKD2eMfDHWxA5FH26lHS-126" value="" style="shape=tableRow;horizontal=0;startSize=0;swimlaneHead=0;swimlaneBody=0;fillColor=none;collapsible=0;dropTarget=0;points=[[0,0.5],[1,0.5]];portConstraint=eastwest;top=0;left=0;right=0;bottom=0;labelBackgroundColor=none;strokeColor=#E07A5F;fontColor=#393C56;" parent="KKD2eMfDHWxA5FH26lHS-119" vertex="1">
          <mxGeometry y="90" width="180" height="30" as="geometry" />
        </mxCell>
        <mxCell id="KKD2eMfDHWxA5FH26lHS-127" value="" style="shape=partialRectangle;connectable=0;fillColor=none;top=0;left=0;bottom=0;right=0;editable=1;overflow=hidden;whiteSpace=wrap;html=1;labelBackgroundColor=none;strokeColor=#E07A5F;fontColor=#393C56;" parent="KKD2eMfDHWxA5FH26lHS-126" vertex="1">
          <mxGeometry width="30" height="30" as="geometry">
            <mxRectangle width="30" height="30" as="alternateBounds" />
          </mxGeometry>
        </mxCell>
        <mxCell id="KKD2eMfDHWxA5FH26lHS-128" value="ProviderAddress" style="shape=partialRectangle;connectable=0;fillColor=none;top=0;left=0;bottom=0;right=0;align=left;spacingLeft=6;overflow=hidden;whiteSpace=wrap;html=1;labelBackgroundColor=none;strokeColor=#E07A5F;fontColor=#393C56;" parent="KKD2eMfDHWxA5FH26lHS-126" vertex="1">
          <mxGeometry x="30" width="150" height="30" as="geometry">
            <mxRectangle width="150" height="30" as="alternateBounds" />
          </mxGeometry>
        </mxCell>
        <mxCell id="KKD2eMfDHWxA5FH26lHS-129" value="" style="shape=tableRow;horizontal=0;startSize=0;swimlaneHead=0;swimlaneBody=0;fillColor=none;collapsible=0;dropTarget=0;points=[[0,0.5],[1,0.5]];portConstraint=eastwest;top=0;left=0;right=0;bottom=0;labelBackgroundColor=none;strokeColor=#E07A5F;fontColor=#393C56;" parent="KKD2eMfDHWxA5FH26lHS-119" vertex="1">
          <mxGeometry y="120" width="180" height="30" as="geometry" />
        </mxCell>
        <mxCell id="KKD2eMfDHWxA5FH26lHS-130" value="" style="shape=partialRectangle;connectable=0;fillColor=none;top=0;left=0;bottom=0;right=0;editable=1;overflow=hidden;whiteSpace=wrap;html=1;labelBackgroundColor=none;strokeColor=#E07A5F;fontColor=#393C56;" parent="KKD2eMfDHWxA5FH26lHS-129" vertex="1">
          <mxGeometry width="30" height="30" as="geometry">
            <mxRectangle width="30" height="30" as="alternateBounds" />
          </mxGeometry>
        </mxCell>
        <mxCell id="KKD2eMfDHWxA5FH26lHS-131" value="Type" style="shape=partialRectangle;connectable=0;fillColor=none;top=0;left=0;bottom=0;right=0;align=left;spacingLeft=6;overflow=hidden;whiteSpace=wrap;html=1;labelBackgroundColor=none;strokeColor=#E07A5F;fontColor=#393C56;" parent="KKD2eMfDHWxA5FH26lHS-129" vertex="1">
          <mxGeometry x="30" width="150" height="30" as="geometry">
            <mxRectangle width="150" height="30" as="alternateBounds" />
          </mxGeometry>
        </mxCell>
        <mxCell id="KKD2eMfDHWxA5FH26lHS-206" style="edgeStyle=orthogonalEdgeStyle;rounded=0;orthogonalLoop=1;jettySize=auto;html=1;entryX=0.25;entryY=1;entryDx=0;entryDy=0;labelBackgroundColor=none;fontColor=default;strokeColor=#E07A5F;" parent="1" source="KKD2eMfDHWxA5FH26lHS-38" target="KKD2eMfDHWxA5FH26lHS-13" edge="1">
          <mxGeometry relative="1" as="geometry">
            <mxPoint x="579.04" y="250.97999999999956" as="targetPoint" />
          </mxGeometry>
        </mxCell>
        <mxCell id="KKD2eMfDHWxA5FH26lHS-207" style="edgeStyle=orthogonalEdgeStyle;rounded=0;orthogonalLoop=1;jettySize=auto;html=1;labelBackgroundColor=none;fontColor=default;strokeColor=#E07A5F;entryX=0.75;entryY=1;entryDx=0;entryDy=0;" parent="1" source="KKD2eMfDHWxA5FH26lHS-77" target="KKD2eMfDHWxA5FH26lHS-13" edge="1">
          <mxGeometry relative="1" as="geometry">
            <mxPoint x="644" y="253" as="targetPoint" />
          </mxGeometry>
        </mxCell>
        <mxCell id="KKD2eMfDHWxA5FH26lHS-222" value="M" style="text;html=1;align=center;verticalAlign=middle;whiteSpace=wrap;rounded=0;labelBackgroundColor=none;fontColor=#393C56;" parent="1" vertex="1">
          <mxGeometry x="-57" y="-5" width="60" height="30" as="geometry" />
        </mxCell>
        <mxCell id="KKD2eMfDHWxA5FH26lHS-231" value="M" style="text;html=1;align=center;verticalAlign=middle;whiteSpace=wrap;rounded=0;labelBackgroundColor=none;fontColor=#393C56;" parent="1" vertex="1">
          <mxGeometry x="-145" y="392" width="60" height="30" as="geometry" />
        </mxCell>
        <mxCell id="KKD2eMfDHWxA5FH26lHS-233" value="Has&lt;div&gt;Insurance&lt;/div&gt;" style="shape=rhombus;perimeter=rhombusPerimeter;whiteSpace=wrap;html=1;align=center;labelBackgroundColor=none;fillColor=#F2CC8F;strokeColor=#E07A5F;fontColor=#393C56;" parent="1" vertex="1">
          <mxGeometry x="-75" y="594" width="135" height="70" as="geometry" />
        </mxCell>
        <mxCell id="KKD2eMfDHWxA5FH26lHS-235" value="" style="endArrow=none;html=1;rounded=0;entryX=0.5;entryY=1;entryDx=0;entryDy=0;exitX=0.5;exitY=0;exitDx=0;exitDy=0;labelBackgroundColor=none;fontColor=default;strokeColor=#E07A5F;" parent="1" source="KKD2eMfDHWxA5FH26lHS-119" target="KKD2eMfDHWxA5FH26lHS-233" edge="1">
          <mxGeometry width="50" height="50" relative="1" as="geometry">
            <mxPoint x="372.5" y="800" as="sourcePoint" />
            <mxPoint x="422.5" y="750" as="targetPoint" />
          </mxGeometry>
        </mxCell>
        <mxCell id="KKD2eMfDHWxA5FH26lHS-239" value="M" style="text;html=1;align=center;verticalAlign=middle;whiteSpace=wrap;rounded=0;labelBackgroundColor=none;fontColor=#393C56;" parent="1" vertex="1">
          <mxGeometry x="-123" y="761" width="60" height="30" as="geometry" />
        </mxCell>
        <mxCell id="KKD2eMfDHWxA5FH26lHS-241" value="Works&amp;nbsp;&lt;div&gt;On&lt;/div&gt;&lt;div&gt;Team&lt;/div&gt;" style="shape=rhombus;perimeter=rhombusPerimeter;whiteSpace=wrap;html=1;align=center;labelBackgroundColor=none;fillColor=#F2CC8F;strokeColor=#E07A5F;fontColor=#393C56;" parent="1" vertex="1">
          <mxGeometry x="510" y="740" width="120" height="60" as="geometry" />
        </mxCell>
        <mxCell id="KKD2eMfDHWxA5FH26lHS-244" value="" style="endArrow=none;html=1;rounded=0;exitX=0.5;exitY=0;exitDx=0;exitDy=0;labelBackgroundColor=none;fontColor=default;strokeColor=#E07A5F;" parent="1" source="KKD2eMfDHWxA5FH26lHS-241" target="KKD2eMfDHWxA5FH26lHS-61" edge="1">
          <mxGeometry width="50" height="50" relative="1" as="geometry">
            <mxPoint x="600" y="710" as="sourcePoint" />
            <mxPoint x="600" y="650" as="targetPoint" />
          </mxGeometry>
        </mxCell>
        <mxCell id="KKD2eMfDHWxA5FH26lHS-245" value="" style="endArrow=none;html=1;rounded=0;entryX=0.5;entryY=1;entryDx=0;entryDy=0;exitX=0.457;exitY=-0.009;exitDx=0;exitDy=0;exitPerimeter=0;labelBackgroundColor=none;fontColor=default;strokeColor=#E07A5F;" parent="1" source="KKD2eMfDHWxA5FH26lHS-93" target="KKD2eMfDHWxA5FH26lHS-241" edge="1">
          <mxGeometry width="50" height="50" relative="1" as="geometry">
            <mxPoint x="620" y="850" as="sourcePoint" />
            <mxPoint x="670" y="800" as="targetPoint" />
          </mxGeometry>
        </mxCell>
        <mxCell id="KKD2eMfDHWxA5FH26lHS-246" value="M" style="text;html=1;align=center;verticalAlign=middle;whiteSpace=wrap;rounded=0;labelBackgroundColor=none;fontColor=#393C56;" parent="1" vertex="1">
          <mxGeometry x="560" y="670" width="60" height="30" as="geometry" />
        </mxCell>
        <mxCell id="KKD2eMfDHWxA5FH26lHS-247" value="N" style="text;html=1;align=center;verticalAlign=middle;whiteSpace=wrap;rounded=0;labelBackgroundColor=none;fontColor=#393C56;" parent="1" vertex="1">
          <mxGeometry x="560" y="920" width="60" height="30" as="geometry" />
        </mxCell>
        <mxCell id="KKD2eMfDHWxA5FH26lHS-248" style="edgeStyle=orthogonalEdgeStyle;rounded=0;orthogonalLoop=1;jettySize=auto;html=1;exitX=0.5;exitY=1;exitDx=0;exitDy=0;labelBackgroundColor=none;fontColor=default;strokeColor=#E07A5F;" parent="1" source="KKD2eMfDHWxA5FH26lHS-239" target="KKD2eMfDHWxA5FH26lHS-239" edge="1">
          <mxGeometry relative="1" as="geometry" />
        </mxCell>
        <mxCell id="KKD2eMfDHWxA5FH26lHS-249" value="" style="endArrow=none;html=1;rounded=0;entryX=0.5;entryY=0;entryDx=0;entryDy=0;labelBackgroundColor=none;fontColor=default;strokeColor=#E07A5F;" parent="1" edge="1">
          <mxGeometry width="50" height="50" relative="1" as="geometry">
            <mxPoint x="398" y="480" as="sourcePoint" />
            <mxPoint x="360" y="480" as="targetPoint" />
          </mxGeometry>
        </mxCell>
        <mxCell id="KKD2eMfDHWxA5FH26lHS-250" value="CaresForClients" style="shape=rhombus;perimeter=rhombusPerimeter;whiteSpace=wrap;html=1;align=center;labelBackgroundColor=none;fillColor=#F2CC8F;strokeColor=#E07A5F;fontColor=#393C56;" parent="1" vertex="1">
          <mxGeometry x="375" y="670" width="120" height="60" as="geometry" />
        </mxCell>
        <mxCell id="KKD2eMfDHWxA5FH26lHS-252" value="" style="endArrow=none;html=1;rounded=0;entryX=0;entryY=0;entryDx=0;entryDy=0;exitX=0.5;exitY=1;exitDx=0;exitDy=0;labelBackgroundColor=none;fontColor=default;strokeColor=#E07A5F;" parent="1" source="KKD2eMfDHWxA5FH26lHS-250" target="KKD2eMfDHWxA5FH26lHS-93" edge="1">
          <mxGeometry width="50" height="50" relative="1" as="geometry">
            <mxPoint x="440" y="790" as="sourcePoint" />
            <mxPoint x="545" y="905" as="targetPoint" />
          </mxGeometry>
        </mxCell>
        <mxCell id="KKD2eMfDHWxA5FH26lHS-254" value="" style="endArrow=none;html=1;rounded=0;entryX=0.5;entryY=1;entryDx=0;entryDy=0;exitX=0.5;exitY=0;exitDx=0;exitDy=0;labelBackgroundColor=none;fontColor=default;strokeColor=#E07A5F;" parent="1" source="KKD2eMfDHWxA5FH26lHS-250" target="KKD2eMfDHWxA5FH26lHS-38" edge="1">
          <mxGeometry width="50" height="50" relative="1" as="geometry">
            <mxPoint x="400" y="650" as="sourcePoint" />
            <mxPoint x="450" y="600" as="targetPoint" />
          </mxGeometry>
        </mxCell>
        <mxCell id="KKD2eMfDHWxA5FH26lHS-257" value="M" style="text;html=1;align=center;verticalAlign=middle;whiteSpace=wrap;rounded=0;labelBackgroundColor=none;fontColor=#393C56;" parent="1" vertex="1">
          <mxGeometry x="510" y="1070" width="60" height="30" as="geometry" />
        </mxCell>
        <mxCell id="KKD2eMfDHWxA5FH26lHS-258" value="M" style="text;html=1;align=center;verticalAlign=middle;whiteSpace=wrap;rounded=0;labelBackgroundColor=none;fontColor=#393C56;" parent="1" vertex="1">
          <mxGeometry x="390" y="475" width="60" height="30" as="geometry" />
        </mxCell>
        <mxCell id="KKD2eMfDHWxA5FH26lHS-259" value="Team Leader" style="shape=rhombus;perimeter=rhombusPerimeter;whiteSpace=wrap;html=1;align=center;labelBackgroundColor=none;fillColor=#F2CC8F;strokeColor=#E07A5F;fontColor=#393C56;" parent="1" vertex="1">
          <mxGeometry x="900" y="731" width="120" height="60" as="geometry" />
        </mxCell>
        <mxCell id="KKD2eMfDHWxA5FH26lHS-260" value="" style="endArrow=none;html=1;rounded=0;entryX=0.5;entryY=0;entryDx=0;entryDy=0;exitX=1.015;exitY=-0.042;exitDx=0;exitDy=0;exitPerimeter=0;labelBackgroundColor=none;fontColor=default;strokeColor=#E07A5F;" parent="1" source="KKD2eMfDHWxA5FH26lHS-61" target="KKD2eMfDHWxA5FH26lHS-259" edge="1">
          <mxGeometry width="50" height="50" relative="1" as="geometry">
            <mxPoint x="730" y="610" as="sourcePoint" />
            <mxPoint x="810" y="640" as="targetPoint" />
          </mxGeometry>
        </mxCell>
        <mxCell id="KKD2eMfDHWxA5FH26lHS-261" value="" style="endArrow=none;html=1;rounded=0;entryX=0.5;entryY=1;entryDx=0;entryDy=0;exitX=1;exitY=0;exitDx=0;exitDy=0;labelBackgroundColor=none;fontColor=default;strokeColor=#E07A5F;" parent="1" source="KKD2eMfDHWxA5FH26lHS-93" target="KKD2eMfDHWxA5FH26lHS-259" edge="1">
          <mxGeometry width="50" height="50" relative="1" as="geometry">
            <mxPoint x="800" y="850" as="sourcePoint" />
            <mxPoint x="850" y="800" as="targetPoint" />
          </mxGeometry>
        </mxCell>
        <mxCell id="KKD2eMfDHWxA5FH26lHS-276" value="Submits&amp;nbsp;&lt;div&gt;ReportTo&lt;/div&gt;&lt;div&gt;Employee&lt;/div&gt;" style="shape=rhombus;perimeter=rhombusPerimeter;whiteSpace=wrap;html=1;align=center;labelBackgroundColor=none;fillColor=#F2CC8F;strokeColor=#E07A5F;fontColor=#393C56;" parent="1" vertex="1">
          <mxGeometry x="1030" y="405" width="130" height="80" as="geometry" />
        </mxCell>
        <mxCell id="KKD2eMfDHWxA5FH26lHS-284" value="M" style="text;html=1;align=center;verticalAlign=middle;whiteSpace=wrap;rounded=0;labelBackgroundColor=none;fontColor=#393C56;" parent="1" vertex="1">
          <mxGeometry x="1354.5" y="583" width="60" height="30" as="geometry" />
        </mxCell>
        <mxCell id="KKD2eMfDHWxA5FH26lHS-289" value="M" style="text;html=1;align=center;verticalAlign=middle;whiteSpace=wrap;rounded=0;labelBackgroundColor=none;fontColor=#393C56;" parent="1" vertex="1">
          <mxGeometry x="1024" y="75" width="60" height="30" as="geometry" />
        </mxCell>
        <mxCell id="ee1TjJ4NZM1b7YtHS9lV-1" value="" style="endArrow=classic;html=1;rounded=0;exitX=0.5;exitY=0;exitDx=0;exitDy=0;labelBackgroundColor=none;strokeColor=#E07A5F;fontColor=default;" parent="1" source="KKD2eMfDHWxA5FH26lHS-233" edge="1">
          <mxGeometry width="50" height="50" relative="1" as="geometry">
            <mxPoint x="321" y="607" as="sourcePoint" />
            <mxPoint x="348" y="479" as="targetPoint" />
            <Array as="points" />
          </mxGeometry>
        </mxCell>
        <mxCell id="ee1TjJ4NZM1b7YtHS9lV-3" value="" style="endArrow=classic;html=1;rounded=0;exitX=0.964;exitY=0.487;exitDx=0;exitDy=0;exitPerimeter=0;entryX=-0.011;entryY=0.067;entryDx=0;entryDy=0;entryPerimeter=0;labelBackgroundColor=none;strokeColor=#E07A5F;fontColor=default;" parent="1" source="MWMiU2al3-OT94j2-ib6-172" target="KKD2eMfDHWxA5FH26lHS-45" edge="1">
          <mxGeometry width="50" height="50" relative="1" as="geometry">
            <mxPoint x="170" y="413.98" as="sourcePoint" />
            <mxPoint x="235" y="376" as="targetPoint" />
          </mxGeometry>
        </mxCell>
        <mxCell id="ee1TjJ4NZM1b7YtHS9lV-4" value="" style="endArrow=classic;html=1;rounded=0;entryX=0.5;entryY=0;entryDx=0;entryDy=0;labelBackgroundColor=none;strokeColor=#E07A5F;fontColor=default;exitX=0.5;exitY=1;exitDx=0;exitDy=0;" parent="1" source="MWMiU2al3-OT94j2-ib6-168" target="KKD2eMfDHWxA5FH26lHS-77" edge="1">
          <mxGeometry width="50" height="50" relative="1" as="geometry">
            <mxPoint x="942" y="234" as="sourcePoint" />
            <mxPoint x="848" y="175" as="targetPoint" />
          </mxGeometry>
        </mxCell>
        <mxCell id="ee1TjJ4NZM1b7YtHS9lV-5" value="" style="endArrow=classic;html=1;rounded=0;exitX=0;exitY=0.5;exitDx=0;exitDy=0;entryX=1.022;entryY=0.133;entryDx=0;entryDy=0;entryPerimeter=0;labelBackgroundColor=none;strokeColor=#E07A5F;fontColor=default;" parent="1" source="KKD2eMfDHWxA5FH26lHS-276" target="KKD2eMfDHWxA5FH26lHS-71" edge="1">
          <mxGeometry width="50" height="50" relative="1" as="geometry">
            <mxPoint x="925" y="453" as="sourcePoint" />
            <mxPoint x="975" y="403" as="targetPoint" />
          </mxGeometry>
        </mxCell>
        <mxCell id="ee1TjJ4NZM1b7YtHS9lV-6" value="" style="endArrow=classic;html=1;rounded=0;entryX=1.006;entryY=0.967;entryDx=0;entryDy=0;entryPerimeter=0;labelBackgroundColor=none;strokeColor=#E07A5F;fontColor=default;exitX=0;exitY=0.5;exitDx=0;exitDy=0;" parent="1" source="MWMiU2al3-OT94j2-ib6-176" target="KKD2eMfDHWxA5FH26lHS-74" edge="1">
          <mxGeometry width="50" height="50" relative="1" as="geometry">
            <mxPoint x="1035" y="595" as="sourcePoint" />
            <mxPoint x="1008.98" y="514" as="targetPoint" />
          </mxGeometry>
        </mxCell>
        <mxCell id="MWMiU2al3-OT94j2-ib6-26" value="&lt;span style=&quot;caret-color: rgba(0, 0, 0, 0); color: rgba(0, 0, 0, 0); font-family: monospace; font-size: 0px; text-align: start; white-space: nowrap;&quot;&gt;%3CmxGraphModel%3E%3Croot%3E%3CmxCell%20id%3D%220%22%2F%3E%3CmxCell%20id%3D%221%22%20parent%3D%220%22%2F%3E%3CmxCell%20id%3D%222%22%20value%3D%22Need%22%20style%3D%22shape%3Dtable%3BstartSize%3D30%3Bcontainer%3D1%3Bcollapsible%3D1%3BchildLayout%3DtableLayout%3BfixedRows%3D1%3BrowLines%3D0%3BfontStyle%3D1%3Balign%3Dcenter%3BresizeLast%3D1%3Bhtml%3D1%3BlabelBackgroundColor%3Dnone%3BfillColor%3D%23F2CC8F%3BstrokeColor%3D%23E07A5F%3BfontColor%3D%23393C56%3B%22%20vertex%3D%221%22%20parent%3D%221%22%3E%3CmxGeometry%20x%3D%22-293%22%20y%3D%22356.7%22%20width%3D%22180%22%20height%3D%2288.30000000000007%22%20as%3D%22geometry%22%2F%3E%3C%2FmxCell%3E%3CmxCell%20id%3D%223%22%20value%3D%22%22%20style%3D%22shape%3DtableRow%3Bhorizontal%3D0%3BstartSize%3D0%3BswimlaneHead%3D0%3BswimlaneBody%3D0%3BfillColor%3Dnone%3Bcollapsible%3D0%3BdropTarget%3D0%3Bpoints%3D%5B%5B0%2C0.5%5D%2C%5B1%2C0.5%5D%5D%3BportConstraint%3Deastwest%3Btop%3D0%3Bleft%3D0%3Bright%3D0%3Bbottom%3D0%3BlabelBackgroundColor%3Dnone%3BstrokeColor%3D%23E07A5F%3BfontColor%3D%23393C56%3B%22%20vertex%3D%221%22%20parent%3D%222%22%3E%3CmxGeometry%20y%3D%2230%22%20width%3D%22180%22%20height%3D%2228%22%20as%3D%22geometry%22%2F%3E%3C%2FmxCell%3E%3CmxCell%20id%3D%224%22%20value%3D%22%22%20style%3D%22shape%3DpartialRectangle%3Bconnectable%3D0%3BfillColor%3Dnone%3Btop%3D0%3Bleft%3D0%3Bbottom%3D0%3Bright%3D0%3Beditable%3D1%3Boverflow%3Dhidden%3BwhiteSpace%3Dwrap%3Bhtml%3D1%3BlabelBackgroundColor%3Dnone%3BstrokeColor%3D%23E07A5F%3BfontColor%3D%23393C56%3B%22%20vertex%3D%221%22%20parent%3D%223%22%3E%3CmxGeometry%20width%3D%2230%22%20height%3D%2228%22%20as%3D%22geometry%22%3E%3CmxRectangle%20width%3D%2230%22%20height%3D%2228%22%20as%3D%22alternateBounds%22%2F%3E%3C%2FmxGeometry%3E%3C%2FmxCell%3E%3CmxCell%20id%3D%225%22%20value%3D%22Importantance%22%20style%3D%22shape%3DpartialRectangle%3Bconnectable%3D0%3BfillColor%3Dnone%3Btop%3D0%3Bleft%3D0%3Bbottom%3D0%3Bright%3D0%3Balign%3Dleft%3BspacingLeft%3D6%3Boverflow%3Dhidden%3BwhiteSpace%3Dwrap%3Bhtml%3D1%3BlabelBackgroundColor%3Dnone%3BstrokeColor%3D%23E07A5F%3BfontColor%3D%23393C56%3B%22%20vertex%3D%221%22%20parent%3D%223%22%3E%3CmxGeometry%20x%3D%2230%22%20width%3D%22150%22%20height%3D%2228%22%20as%3D%22geometry%22%3E%3CmxRectangle%20width%3D%22150%22%20height%3D%2228%22%20as%3D%22alternateBounds%22%2F%3E%3C%2FmxGeometry%3E%3C%2FmxCell%3E%3CmxCell%20id%3D%226%22%20value%3D%22%22%20style%3D%22shape%3DtableRow%3Bhorizontal%3D0%3BstartSize%3D0%3BswimlaneHead%3D0%3BswimlaneBody%3D0%3BfillColor%3Dnone%3Bcollapsible%3D0%3BdropTarget%3D0%3Bpoints%3D%5B%5B0%2C0.5%5D%2C%5B1%2C0.5%5D%5D%3BportConstraint%3Deastwest%3Btop%3D0%3Bleft%3D0%3Bright%3D0%3Bbottom%3D0%3BlabelBackgroundColor%3Dnone%3BstrokeColor%3D%23E07A5F%3BfontColor%3D%23393C56%3B%22%20vertex%3D%221%22%20parent%3D%222%22%3E%3CmxGeometry%20y%3D%2258%22%20width%3D%22180%22%20height%3D%2230%22%20as%3D%22geometry%22%2F%3E%3C%2FmxCell%3E%3CmxCell%20id%3D%227%22%20value%3D%22%22%20style%3D%22shape%3DpartialRectangle%3Bconnectable%3D0%3BfillColor%3Dnone%3Btop%3D0%3Bleft%3D0%3Bbottom%3D0%3Bright%3D0%3Beditable%3D1%3Boverflow%3Dhidden%3BwhiteSpace%3Dwrap%3Bhtml%3D1%3BlabelBackgroundColor%3Dnone%3BstrokeColor%3D%23E07A5F%3BfontColor%3D%23393C56%3B%22%20vertex%3D%221%22%20parent%3D%226%22%3E%3CmxGeometry%20width%3D%2230%22%20height%3D%2230%22%20as%3D%22geometry%22%3E%3CmxRectangle%20width%3D%2230%22%20height%3D%2230%22%20as%3D%22alternateBounds%22%2F%3E%3C%2FmxGeometry%3E%3C%2FmxCell%3E%3CmxCell%20id%3D%228%22%20value%3D%22Type%22%20style%3D%22shape%3DpartialRectangle%3Bconnectable%3D0%3BfillColor%3Dnone%3Btop%3D0%3Bleft%3D0%3Bbottom%3D0%3Bright%3D0%3Balign%3Dleft%3BspacingLeft%3D6%3Boverflow%3Dhidden%3BwhiteSpace%3Dwrap%3Bhtml%3D1%3BlabelBackgroundColor%3Dnone%3BstrokeColor%3D%23E07A5F%3BfontColor%3D%23393C56%3B%22%20vertex%3D%221%22%20parent%3D%226%22%3E%3CmxGeometry%20x%3D%2230%22%20width%3D%22150%22%20height%3D%2230%22%20as%3D%22geometry%22%3E%3CmxRectangle%20width%3D%22150%22%20height%3D%2230%22%20as%3D%22alternateBounds%22%2F%3E%3C%2FmxGeometry%3E%3C%2FmxCell%3E%3C%2Froot%3E%3C%2FmxGraphModel%3E&lt;/span&gt;" style="whiteSpace=wrap;html=1;align=center;" parent="1" vertex="1">
          <mxGeometry x="-318.39" y="378" width="189" height="97" as="geometry" />
        </mxCell>
        <mxCell id="MWMiU2al3-OT94j2-ib6-27" value="Need" style="shape=table;startSize=30;container=1;collapsible=1;childLayout=tableLayout;fixedRows=1;rowLines=0;fontStyle=1;align=center;resizeLast=1;html=1;labelBackgroundColor=none;fillColor=#F2CC8F;strokeColor=#E07A5F;fontColor=#393C56;" parent="1" vertex="1">
          <mxGeometry x="-314.19" y="382.43" width="180.60714285714278" height="88.15" as="geometry" />
        </mxCell>
        <mxCell id="MWMiU2al3-OT94j2-ib6-28" value="" style="shape=tableRow;horizontal=0;startSize=0;swimlaneHead=0;swimlaneBody=0;fillColor=none;collapsible=0;dropTarget=0;points=[[0,0.5],[1,0.5]];portConstraint=eastwest;top=0;left=0;right=0;bottom=0;labelBackgroundColor=none;strokeColor=#E07A5F;fontColor=#393C56;" parent="MWMiU2al3-OT94j2-ib6-27" vertex="1">
          <mxGeometry y="30" width="180.60714285714278" height="28" as="geometry" />
        </mxCell>
        <mxCell id="MWMiU2al3-OT94j2-ib6-29" value="" style="shape=partialRectangle;connectable=0;fillColor=none;top=0;left=0;bottom=0;right=0;editable=1;overflow=hidden;whiteSpace=wrap;html=1;labelBackgroundColor=none;strokeColor=#E07A5F;fontColor=#393C56;" parent="MWMiU2al3-OT94j2-ib6-28" vertex="1">
          <mxGeometry width="30" height="28" as="geometry">
            <mxRectangle width="30" height="28" as="alternateBounds" />
          </mxGeometry>
        </mxCell>
        <mxCell id="MWMiU2al3-OT94j2-ib6-30" value="Importantance" style="shape=partialRectangle;connectable=0;fillColor=none;top=0;left=0;bottom=0;right=0;align=left;spacingLeft=6;overflow=hidden;whiteSpace=wrap;html=1;labelBackgroundColor=none;strokeColor=#E07A5F;fontColor=#393C56;" parent="MWMiU2al3-OT94j2-ib6-28" vertex="1">
          <mxGeometry x="30" width="150.60714285714278" height="28" as="geometry">
            <mxRectangle width="150.60714285714278" height="28" as="alternateBounds" />
          </mxGeometry>
        </mxCell>
        <mxCell id="MWMiU2al3-OT94j2-ib6-31" value="" style="shape=tableRow;horizontal=0;startSize=0;swimlaneHead=0;swimlaneBody=0;fillColor=none;collapsible=0;dropTarget=0;points=[[0,0.5],[1,0.5]];portConstraint=eastwest;top=0;left=0;right=0;bottom=0;labelBackgroundColor=none;strokeColor=#E07A5F;fontColor=#393C56;" parent="MWMiU2al3-OT94j2-ib6-27" vertex="1">
          <mxGeometry y="58" width="180.60714285714278" height="30" as="geometry" />
        </mxCell>
        <mxCell id="MWMiU2al3-OT94j2-ib6-32" value="" style="shape=partialRectangle;connectable=0;fillColor=none;top=0;left=0;bottom=0;right=0;editable=1;overflow=hidden;whiteSpace=wrap;html=1;labelBackgroundColor=none;strokeColor=#E07A5F;fontColor=#393C56;" parent="MWMiU2al3-OT94j2-ib6-31" vertex="1">
          <mxGeometry width="30" height="30" as="geometry">
            <mxRectangle width="30" height="30" as="alternateBounds" />
          </mxGeometry>
        </mxCell>
        <mxCell id="MWMiU2al3-OT94j2-ib6-33" value="Type" style="shape=partialRectangle;connectable=0;fillColor=none;top=0;left=0;bottom=0;right=0;align=left;spacingLeft=6;overflow=hidden;whiteSpace=wrap;html=1;labelBackgroundColor=none;strokeColor=#E07A5F;fontColor=#393C56;" parent="MWMiU2al3-OT94j2-ib6-31" vertex="1">
          <mxGeometry x="30" width="150.60714285714278" height="30" as="geometry">
            <mxRectangle width="150.60714285714278" height="30" as="alternateBounds" />
          </mxGeometry>
        </mxCell>
        <mxCell id="MWMiU2al3-OT94j2-ib6-38" value="" style="whiteSpace=wrap;html=1;align=center;" parent="1" vertex="1">
          <mxGeometry x="-232" y="-67" width="190" height="129" as="geometry" />
        </mxCell>
        <mxCell id="MWMiU2al3-OT94j2-ib6-41" value="Emergency Contact" style="shape=table;startSize=30;container=1;collapsible=1;childLayout=tableLayout;fixedRows=1;rowLines=0;fontStyle=1;align=center;resizeLast=1;html=1;labelBackgroundColor=none;fillColor=#F2CC8F;strokeColor=#E07A5F;fontColor=#393C56;" parent="1" vertex="1">
          <mxGeometry x="-227.79000000000002" y="-62.5" width="180" height="120" as="geometry" />
        </mxCell>
        <mxCell id="MWMiU2al3-OT94j2-ib6-42" value="" style="shape=tableRow;horizontal=0;startSize=0;swimlaneHead=0;swimlaneBody=0;fillColor=none;collapsible=0;dropTarget=0;points=[[0,0.5],[1,0.5]];portConstraint=eastwest;top=0;left=0;right=0;bottom=0;labelBackgroundColor=none;strokeColor=#E07A5F;fontColor=#393C56;" parent="MWMiU2al3-OT94j2-ib6-41" vertex="1">
          <mxGeometry y="30" width="180" height="30" as="geometry" />
        </mxCell>
        <mxCell id="MWMiU2al3-OT94j2-ib6-43" value="" style="shape=partialRectangle;connectable=0;fillColor=none;top=0;left=0;bottom=0;right=0;editable=1;overflow=hidden;whiteSpace=wrap;html=1;labelBackgroundColor=none;strokeColor=#E07A5F;fontColor=#393C56;" parent="MWMiU2al3-OT94j2-ib6-42" vertex="1">
          <mxGeometry width="30" height="30" as="geometry">
            <mxRectangle width="30" height="30" as="alternateBounds" />
          </mxGeometry>
        </mxCell>
        <mxCell id="MWMiU2al3-OT94j2-ib6-44" value="Name" style="shape=partialRectangle;connectable=0;fillColor=none;top=0;left=0;bottom=0;right=0;align=left;spacingLeft=6;overflow=hidden;whiteSpace=wrap;html=1;labelBackgroundColor=none;strokeColor=#E07A5F;fontColor=#393C56;" parent="MWMiU2al3-OT94j2-ib6-42" vertex="1">
          <mxGeometry x="30" width="150" height="30" as="geometry">
            <mxRectangle width="150" height="30" as="alternateBounds" />
          </mxGeometry>
        </mxCell>
        <mxCell id="MWMiU2al3-OT94j2-ib6-48" value="" style="shape=tableRow;horizontal=0;startSize=0;swimlaneHead=0;swimlaneBody=0;fillColor=none;collapsible=0;dropTarget=0;points=[[0,0.5],[1,0.5]];portConstraint=eastwest;top=0;left=0;right=0;bottom=0;labelBackgroundColor=none;strokeColor=#E07A5F;fontColor=#393C56;" parent="MWMiU2al3-OT94j2-ib6-41" vertex="1">
          <mxGeometry y="60" width="180" height="30" as="geometry" />
        </mxCell>
        <mxCell id="MWMiU2al3-OT94j2-ib6-49" value="" style="shape=partialRectangle;connectable=0;fillColor=none;top=0;left=0;bottom=0;right=0;editable=1;overflow=hidden;whiteSpace=wrap;html=1;labelBackgroundColor=none;strokeColor=#E07A5F;fontColor=#393C56;" parent="MWMiU2al3-OT94j2-ib6-48" vertex="1">
          <mxGeometry width="30" height="30" as="geometry">
            <mxRectangle width="30" height="30" as="alternateBounds" />
          </mxGeometry>
        </mxCell>
        <mxCell id="MWMiU2al3-OT94j2-ib6-50" value="Relationship" style="shape=partialRectangle;connectable=0;fillColor=none;top=0;left=0;bottom=0;right=0;align=left;spacingLeft=6;overflow=hidden;whiteSpace=wrap;html=1;labelBackgroundColor=none;strokeColor=#E07A5F;fontColor=#393C56;" parent="MWMiU2al3-OT94j2-ib6-48" vertex="1">
          <mxGeometry x="30" width="150" height="30" as="geometry">
            <mxRectangle width="150" height="30" as="alternateBounds" />
          </mxGeometry>
        </mxCell>
        <mxCell id="MWMiU2al3-OT94j2-ib6-51" value="" style="shape=tableRow;horizontal=0;startSize=0;swimlaneHead=0;swimlaneBody=0;fillColor=none;collapsible=0;dropTarget=0;points=[[0,0.5],[1,0.5]];portConstraint=eastwest;top=0;left=0;right=0;bottom=0;labelBackgroundColor=none;strokeColor=#E07A5F;fontColor=#393C56;" parent="MWMiU2al3-OT94j2-ib6-41" vertex="1">
          <mxGeometry y="90" width="180" height="30" as="geometry" />
        </mxCell>
        <mxCell id="MWMiU2al3-OT94j2-ib6-52" value="" style="shape=partialRectangle;connectable=0;fillColor=none;top=0;left=0;bottom=0;right=0;editable=1;overflow=hidden;whiteSpace=wrap;html=1;labelBackgroundColor=none;strokeColor=#E07A5F;fontColor=#393C56;" parent="MWMiU2al3-OT94j2-ib6-51" vertex="1">
          <mxGeometry width="30" height="30" as="geometry">
            <mxRectangle width="30" height="30" as="alternateBounds" />
          </mxGeometry>
        </mxCell>
        <mxCell id="MWMiU2al3-OT94j2-ib6-53" value="Contact" style="shape=partialRectangle;connectable=0;fillColor=none;top=0;left=0;bottom=0;right=0;align=left;spacingLeft=6;overflow=hidden;whiteSpace=wrap;html=1;labelBackgroundColor=none;strokeColor=#E07A5F;fontColor=#393C56;" parent="MWMiU2al3-OT94j2-ib6-51" vertex="1">
          <mxGeometry x="30" width="150" height="30" as="geometry">
            <mxRectangle width="150" height="30" as="alternateBounds" />
          </mxGeometry>
        </mxCell>
        <mxCell id="MWMiU2al3-OT94j2-ib6-54" value="" style="whiteSpace=wrap;html=1;align=center;" parent="1" vertex="1">
          <mxGeometry x="1411" y="594" width="190" height="129" as="geometry" />
        </mxCell>
        <mxCell id="MWMiU2al3-OT94j2-ib6-55" value="Expense" style="shape=table;startSize=30;container=1;collapsible=1;childLayout=tableLayout;fixedRows=1;rowLines=0;fontStyle=1;align=center;resizeLast=1;html=1;labelBackgroundColor=none;fillColor=#F2CC8F;strokeColor=#E07A5F;fontColor=#393C56;" parent="1" vertex="1">
          <mxGeometry x="1414.5" y="598.5" width="180" height="120" as="geometry" />
        </mxCell>
        <mxCell id="MWMiU2al3-OT94j2-ib6-56" value="" style="shape=tableRow;horizontal=0;startSize=0;swimlaneHead=0;swimlaneBody=0;fillColor=none;collapsible=0;dropTarget=0;points=[[0,0.5],[1,0.5]];portConstraint=eastwest;top=0;left=0;right=0;bottom=0;labelBackgroundColor=none;strokeColor=#E07A5F;fontColor=#393C56;" parent="MWMiU2al3-OT94j2-ib6-55" vertex="1">
          <mxGeometry y="30" width="180" height="30" as="geometry" />
        </mxCell>
        <mxCell id="MWMiU2al3-OT94j2-ib6-57" value="" style="shape=partialRectangle;connectable=0;fillColor=none;top=0;left=0;bottom=0;right=0;editable=1;overflow=hidden;whiteSpace=wrap;html=1;labelBackgroundColor=none;strokeColor=#E07A5F;fontColor=#393C56;" parent="MWMiU2al3-OT94j2-ib6-56" vertex="1">
          <mxGeometry width="30" height="30" as="geometry">
            <mxRectangle width="30" height="30" as="alternateBounds" />
          </mxGeometry>
        </mxCell>
        <mxCell id="MWMiU2al3-OT94j2-ib6-58" value="Date" style="shape=partialRectangle;connectable=0;fillColor=none;top=0;left=0;bottom=0;right=0;align=left;spacingLeft=6;overflow=hidden;whiteSpace=wrap;html=1;labelBackgroundColor=none;strokeColor=#E07A5F;fontColor=#393C56;" parent="MWMiU2al3-OT94j2-ib6-56" vertex="1">
          <mxGeometry x="30" width="150" height="30" as="geometry">
            <mxRectangle width="150" height="30" as="alternateBounds" />
          </mxGeometry>
        </mxCell>
        <mxCell id="MWMiU2al3-OT94j2-ib6-59" value="" style="shape=tableRow;horizontal=0;startSize=0;swimlaneHead=0;swimlaneBody=0;fillColor=none;collapsible=0;dropTarget=0;points=[[0,0.5],[1,0.5]];portConstraint=eastwest;top=0;left=0;right=0;bottom=0;labelBackgroundColor=none;strokeColor=#E07A5F;fontColor=#393C56;" parent="MWMiU2al3-OT94j2-ib6-55" vertex="1">
          <mxGeometry y="60" width="180" height="30" as="geometry" />
        </mxCell>
        <mxCell id="MWMiU2al3-OT94j2-ib6-60" value="" style="shape=partialRectangle;connectable=0;fillColor=none;top=0;left=0;bottom=0;right=0;editable=1;overflow=hidden;whiteSpace=wrap;html=1;labelBackgroundColor=none;strokeColor=#E07A5F;fontColor=#393C56;" parent="MWMiU2al3-OT94j2-ib6-59" vertex="1">
          <mxGeometry width="30" height="30" as="geometry">
            <mxRectangle width="30" height="30" as="alternateBounds" />
          </mxGeometry>
        </mxCell>
        <mxCell id="MWMiU2al3-OT94j2-ib6-61" value="Amount" style="shape=partialRectangle;connectable=0;fillColor=none;top=0;left=0;bottom=0;right=0;align=left;spacingLeft=6;overflow=hidden;whiteSpace=wrap;html=1;labelBackgroundColor=none;strokeColor=#E07A5F;fontColor=#393C56;" parent="MWMiU2al3-OT94j2-ib6-59" vertex="1">
          <mxGeometry x="30" width="150" height="30" as="geometry">
            <mxRectangle width="150" height="30" as="alternateBounds" />
          </mxGeometry>
        </mxCell>
        <mxCell id="MWMiU2al3-OT94j2-ib6-62" value="" style="shape=tableRow;horizontal=0;startSize=0;swimlaneHead=0;swimlaneBody=0;fillColor=none;collapsible=0;dropTarget=0;points=[[0,0.5],[1,0.5]];portConstraint=eastwest;top=0;left=0;right=0;bottom=0;labelBackgroundColor=none;strokeColor=#E07A5F;fontColor=#393C56;" parent="MWMiU2al3-OT94j2-ib6-55" vertex="1">
          <mxGeometry y="90" width="180" height="30" as="geometry" />
        </mxCell>
        <mxCell id="MWMiU2al3-OT94j2-ib6-63" value="" style="shape=partialRectangle;connectable=0;fillColor=none;top=0;left=0;bottom=0;right=0;editable=1;overflow=hidden;whiteSpace=wrap;html=1;labelBackgroundColor=none;strokeColor=#E07A5F;fontColor=#393C56;" parent="MWMiU2al3-OT94j2-ib6-62" vertex="1">
          <mxGeometry width="30" height="30" as="geometry">
            <mxRectangle width="30" height="30" as="alternateBounds" />
          </mxGeometry>
        </mxCell>
        <mxCell id="MWMiU2al3-OT94j2-ib6-64" value="Description" style="shape=partialRectangle;connectable=0;fillColor=none;top=0;left=0;bottom=0;right=0;align=left;spacingLeft=6;overflow=hidden;whiteSpace=wrap;html=1;labelBackgroundColor=none;strokeColor=#E07A5F;fontColor=#393C56;" parent="MWMiU2al3-OT94j2-ib6-62" vertex="1">
          <mxGeometry x="30" width="150" height="30" as="geometry">
            <mxRectangle width="150" height="30" as="alternateBounds" />
          </mxGeometry>
        </mxCell>
        <mxCell id="MWMiU2al3-OT94j2-ib6-65" value="" style="verticalLabelPosition=bottom;verticalAlign=top;html=1;shape=mxgraph.basic.patternFillRect;fillStyle=diag;step=5;fillStrokeWidth=0.2;fillStrokeColor=#dddddd;strokeColor=#E07A5F;fontColor=#393C56;fillColor=#F2CC8F;" parent="1" vertex="1">
          <mxGeometry x="721" y="733" width="120" height="60" as="geometry" />
        </mxCell>
        <mxCell id="MWMiU2al3-OT94j2-ib6-67" value="Month" style="text;html=1;align=center;verticalAlign=middle;whiteSpace=wrap;rounded=0;fontColor=#393C56;" parent="1" vertex="1">
          <mxGeometry x="710" y="728" width="60" height="30" as="geometry" />
        </mxCell>
        <mxCell id="MWMiU2al3-OT94j2-ib6-68" value="HoursWorked" style="text;html=1;align=center;verticalAlign=middle;whiteSpace=wrap;rounded=0;fontColor=#393C56;" parent="1" vertex="1">
          <mxGeometry x="728" y="746" width="60" height="30" as="geometry" />
        </mxCell>
        <mxCell id="MWMiU2al3-OT94j2-ib6-69" value="ActiveStatue" style="text;html=1;align=center;verticalAlign=middle;whiteSpace=wrap;rounded=0;fontColor=#393C56;" parent="1" vertex="1">
          <mxGeometry x="725" y="766" width="60" height="30" as="geometry" />
        </mxCell>
        <mxCell id="MWMiU2al3-OT94j2-ib6-70" value="" style="endArrow=none;dashed=1;html=1;dashPattern=1 3;strokeWidth=2;rounded=0;strokeColor=#E07A5F;fontColor=#393C56;fillColor=#F2CC8F;exitX=1;exitY=0.5;exitDx=0;exitDy=0;entryX=-0.025;entryY=0.598;entryDx=0;entryDy=0;entryPerimeter=0;" parent="1" source="KKD2eMfDHWxA5FH26lHS-241" target="MWMiU2al3-OT94j2-ib6-65" edge="1">
          <mxGeometry width="50" height="50" relative="1" as="geometry">
            <mxPoint x="633" y="783" as="sourcePoint" />
            <mxPoint x="683" y="733" as="targetPoint" />
          </mxGeometry>
        </mxCell>
        <mxCell id="MWMiU2al3-OT94j2-ib6-71" value="" style="rounded=0;whiteSpace=wrap;html=1;strokeColor=#E07A5F;fontColor=#393C56;fillColor=#F2CC8F;" parent="1" vertex="1">
          <mxGeometry x="124" y="674" width="120" height="59" as="geometry" />
        </mxCell>
        <mxCell id="MWMiU2al3-OT94j2-ib6-74" value="ActiveStatus" style="text;html=1;align=center;verticalAlign=middle;whiteSpace=wrap;rounded=0;fontColor=#393C56;" parent="1" vertex="1">
          <mxGeometry x="129" y="677" width="60" height="30" as="geometry" />
        </mxCell>
        <mxCell id="MWMiU2al3-OT94j2-ib6-75" value="" style="endArrow=none;dashed=1;html=1;dashPattern=1 3;strokeWidth=2;rounded=0;strokeColor=#E07A5F;fontColor=#393C56;fillColor=#F2CC8F;entryX=0;entryY=0.5;entryDx=0;entryDy=0;exitX=1;exitY=0.5;exitDx=0;exitDy=0;" parent="1" source="MWMiU2al3-OT94j2-ib6-71" target="KKD2eMfDHWxA5FH26lHS-250" edge="1">
          <mxGeometry width="50" height="50" relative="1" as="geometry">
            <mxPoint x="264" y="700" as="sourcePoint" />
            <mxPoint x="314" y="650" as="targetPoint" />
          </mxGeometry>
        </mxCell>
        <mxCell id="MWMiU2al3-OT94j2-ib6-76" value="" style="rounded=0;whiteSpace=wrap;html=1;strokeColor=#E07A5F;fontColor=#393C56;fillColor=#F2CC8F;" parent="1" vertex="1">
          <mxGeometry x="1288" y="392" width="174" height="88" as="geometry" />
        </mxCell>
        <mxCell id="MWMiU2al3-OT94j2-ib6-78" value="Content" style="text;html=1;align=center;verticalAlign=middle;whiteSpace=wrap;rounded=0;fontColor=#393C56;" parent="1" vertex="1">
          <mxGeometry x="1281" y="435" width="60" height="30" as="geometry" />
        </mxCell>
        <mxCell id="MWMiU2al3-OT94j2-ib6-79" value="Date" style="text;html=1;align=center;verticalAlign=middle;whiteSpace=wrap;rounded=0;fontColor=#393C56;" parent="1" vertex="1">
          <mxGeometry x="1275" y="405" width="60" height="30" as="geometry" />
        </mxCell>
        <mxCell id="MWMiU2al3-OT94j2-ib6-82" value="" style="endArrow=none;dashed=1;html=1;dashPattern=1 3;strokeWidth=2;rounded=0;strokeColor=#E07A5F;fontColor=#393C56;fillColor=#F2CC8F;exitX=1;exitY=0.5;exitDx=0;exitDy=0;entryX=0;entryY=0.5;entryDx=0;entryDy=0;" parent="1" source="KKD2eMfDHWxA5FH26lHS-276" target="MWMiU2al3-OT94j2-ib6-78" edge="1">
          <mxGeometry width="50" height="50" relative="1" as="geometry">
            <mxPoint x="1185" y="430" as="sourcePoint" />
            <mxPoint x="1235" y="380" as="targetPoint" />
          </mxGeometry>
        </mxCell>
        <mxCell id="MWMiU2al3-OT94j2-ib6-83" value="" style="whiteSpace=wrap;html=1;align=center;" parent="1" vertex="1">
          <mxGeometry x="1067" y="-5" width="190" height="190" as="geometry" />
        </mxCell>
        <mxCell id="MWMiU2al3-OT94j2-ib6-84" value="Donation" style="shape=table;startSize=30;container=1;collapsible=1;childLayout=tableLayout;fixedRows=1;rowLines=0;fontStyle=1;align=center;resizeLast=1;html=1;labelBackgroundColor=none;fillColor=#F2CC8F;strokeColor=#E07A5F;fontColor=#393C56;" parent="1" vertex="1">
          <mxGeometry x="1071" width="180" height="180" as="geometry" />
        </mxCell>
        <mxCell id="MWMiU2al3-OT94j2-ib6-85" value="" style="shape=tableRow;horizontal=0;startSize=0;swimlaneHead=0;swimlaneBody=0;fillColor=none;collapsible=0;dropTarget=0;points=[[0,0.5],[1,0.5]];portConstraint=eastwest;top=0;left=0;right=0;bottom=0;labelBackgroundColor=none;strokeColor=#E07A5F;fontColor=#393C56;" parent="MWMiU2al3-OT94j2-ib6-84" vertex="1">
          <mxGeometry y="30" width="180" height="30" as="geometry" />
        </mxCell>
        <mxCell id="MWMiU2al3-OT94j2-ib6-86" value="" style="shape=partialRectangle;connectable=0;fillColor=none;top=0;left=0;bottom=0;right=0;editable=1;overflow=hidden;whiteSpace=wrap;html=1;labelBackgroundColor=none;strokeColor=#E07A5F;fontColor=#393C56;" parent="MWMiU2al3-OT94j2-ib6-85" vertex="1">
          <mxGeometry width="30" height="30" as="geometry">
            <mxRectangle width="30" height="30" as="alternateBounds" />
          </mxGeometry>
        </mxCell>
        <mxCell id="MWMiU2al3-OT94j2-ib6-87" value="Date" style="shape=partialRectangle;connectable=0;fillColor=none;top=0;left=0;bottom=0;right=0;align=left;spacingLeft=6;overflow=hidden;whiteSpace=wrap;html=1;labelBackgroundColor=none;strokeColor=#E07A5F;fontColor=#393C56;" parent="MWMiU2al3-OT94j2-ib6-85" vertex="1">
          <mxGeometry x="30" width="150" height="30" as="geometry">
            <mxRectangle width="150" height="30" as="alternateBounds" />
          </mxGeometry>
        </mxCell>
        <mxCell id="MWMiU2al3-OT94j2-ib6-88" value="" style="shape=tableRow;horizontal=0;startSize=0;swimlaneHead=0;swimlaneBody=0;fillColor=none;collapsible=0;dropTarget=0;points=[[0,0.5],[1,0.5]];portConstraint=eastwest;top=0;left=0;right=0;bottom=0;labelBackgroundColor=none;strokeColor=#E07A5F;fontColor=#393C56;" parent="MWMiU2al3-OT94j2-ib6-84" vertex="1">
          <mxGeometry y="60" width="180" height="30" as="geometry" />
        </mxCell>
        <mxCell id="MWMiU2al3-OT94j2-ib6-89" value="" style="shape=partialRectangle;connectable=0;fillColor=none;top=0;left=0;bottom=0;right=0;editable=1;overflow=hidden;whiteSpace=wrap;html=1;labelBackgroundColor=none;strokeColor=#E07A5F;fontColor=#393C56;" parent="MWMiU2al3-OT94j2-ib6-88" vertex="1">
          <mxGeometry width="30" height="30" as="geometry">
            <mxRectangle width="30" height="30" as="alternateBounds" />
          </mxGeometry>
        </mxCell>
        <mxCell id="MWMiU2al3-OT94j2-ib6-90" value="Amount" style="shape=partialRectangle;connectable=0;fillColor=none;top=0;left=0;bottom=0;right=0;align=left;spacingLeft=6;overflow=hidden;whiteSpace=wrap;html=1;labelBackgroundColor=none;strokeColor=#E07A5F;fontColor=#393C56;" parent="MWMiU2al3-OT94j2-ib6-88" vertex="1">
          <mxGeometry x="30" width="150" height="30" as="geometry">
            <mxRectangle width="150" height="30" as="alternateBounds" />
          </mxGeometry>
        </mxCell>
        <mxCell id="MWMiU2al3-OT94j2-ib6-91" value="" style="shape=tableRow;horizontal=0;startSize=0;swimlaneHead=0;swimlaneBody=0;fillColor=none;collapsible=0;dropTarget=0;points=[[0,0.5],[1,0.5]];portConstraint=eastwest;top=0;left=0;right=0;bottom=0;labelBackgroundColor=none;strokeColor=#E07A5F;fontColor=#393C56;" parent="MWMiU2al3-OT94j2-ib6-84" vertex="1">
          <mxGeometry y="90" width="180" height="30" as="geometry" />
        </mxCell>
        <mxCell id="MWMiU2al3-OT94j2-ib6-92" value="" style="shape=partialRectangle;connectable=0;fillColor=none;top=0;left=0;bottom=0;right=0;editable=1;overflow=hidden;whiteSpace=wrap;html=1;labelBackgroundColor=none;strokeColor=#E07A5F;fontColor=#393C56;" parent="MWMiU2al3-OT94j2-ib6-91" vertex="1">
          <mxGeometry width="30" height="30" as="geometry">
            <mxRectangle width="30" height="30" as="alternateBounds" />
          </mxGeometry>
        </mxCell>
        <mxCell id="MWMiU2al3-OT94j2-ib6-93" value="Type" style="shape=partialRectangle;connectable=0;fillColor=none;top=0;left=0;bottom=0;right=0;align=left;spacingLeft=6;overflow=hidden;whiteSpace=wrap;html=1;labelBackgroundColor=none;strokeColor=#E07A5F;fontColor=#393C56;" parent="MWMiU2al3-OT94j2-ib6-91" vertex="1">
          <mxGeometry x="30" width="150" height="30" as="geometry">
            <mxRectangle width="150" height="30" as="alternateBounds" />
          </mxGeometry>
        </mxCell>
        <mxCell id="MWMiU2al3-OT94j2-ib6-94" value="" style="shape=tableRow;horizontal=0;startSize=0;swimlaneHead=0;swimlaneBody=0;fillColor=none;collapsible=0;dropTarget=0;points=[[0,0.5],[1,0.5]];portConstraint=eastwest;top=0;left=0;right=0;bottom=0;labelBackgroundColor=none;strokeColor=#E07A5F;fontColor=#393C56;" parent="MWMiU2al3-OT94j2-ib6-84" vertex="1">
          <mxGeometry y="120" width="180" height="30" as="geometry" />
        </mxCell>
        <mxCell id="MWMiU2al3-OT94j2-ib6-95" value="" style="shape=partialRectangle;connectable=0;fillColor=none;top=0;left=0;bottom=0;right=0;editable=1;overflow=hidden;whiteSpace=wrap;html=1;labelBackgroundColor=none;strokeColor=#E07A5F;fontColor=#393C56;" parent="MWMiU2al3-OT94j2-ib6-94" vertex="1">
          <mxGeometry width="30" height="30" as="geometry">
            <mxRectangle width="30" height="30" as="alternateBounds" />
          </mxGeometry>
        </mxCell>
        <mxCell id="MWMiU2al3-OT94j2-ib6-96" value="FundRaisingCampaing" style="shape=partialRectangle;connectable=0;fillColor=none;top=0;left=0;bottom=0;right=0;align=left;spacingLeft=6;overflow=hidden;whiteSpace=wrap;html=1;labelBackgroundColor=none;strokeColor=#E07A5F;fontColor=#393C56;" parent="MWMiU2al3-OT94j2-ib6-94" vertex="1">
          <mxGeometry x="30" width="150" height="30" as="geometry">
            <mxRectangle width="150" height="30" as="alternateBounds" />
          </mxGeometry>
        </mxCell>
        <mxCell id="MWMiU2al3-OT94j2-ib6-109" value="" style="shape=tableRow;horizontal=0;startSize=0;swimlaneHead=0;swimlaneBody=0;fillColor=none;collapsible=0;dropTarget=0;points=[[0,0.5],[1,0.5]];portConstraint=eastwest;top=0;left=0;right=0;bottom=0;labelBackgroundColor=none;strokeColor=#E07A5F;fontColor=#393C56;" parent="MWMiU2al3-OT94j2-ib6-84" vertex="1">
          <mxGeometry y="150" width="180" height="30" as="geometry" />
        </mxCell>
        <mxCell id="MWMiU2al3-OT94j2-ib6-110" value="" style="shape=partialRectangle;connectable=0;fillColor=none;top=0;left=0;bottom=0;right=0;editable=1;overflow=hidden;whiteSpace=wrap;html=1;labelBackgroundColor=none;strokeColor=#E07A5F;fontColor=#393C56;" parent="MWMiU2al3-OT94j2-ib6-109" vertex="1">
          <mxGeometry width="30" height="30" as="geometry">
            <mxRectangle width="30" height="30" as="alternateBounds" />
          </mxGeometry>
        </mxCell>
        <mxCell id="MWMiU2al3-OT94j2-ib6-111" value="&lt;p style=&quot;margin: 0px; font-style: normal; font-variant-caps: normal; font-stretch: normal; line-height: normal; font-family: Arial; font-size-adjust: none; font-kerning: auto; font-variant-alternates: normal; font-variant-ligatures: normal; font-variant-numeric: normal; font-variant-east-asian: normal; font-variant-position: normal; font-feature-settings: normal; font-optical-sizing: auto; font-variation-settings: normal;&quot;&gt;&lt;font style=&quot;font-size: 12px;&quot;&gt;Anonymous &amp;nbsp;(Boolean )&lt;/font&gt;&lt;/p&gt;" style="shape=partialRectangle;connectable=0;fillColor=none;top=0;left=0;bottom=0;right=0;align=left;spacingLeft=6;overflow=hidden;whiteSpace=wrap;html=1;labelBackgroundColor=none;strokeColor=#E07A5F;fontColor=#393C56;" parent="MWMiU2al3-OT94j2-ib6-109" vertex="1">
          <mxGeometry x="30" width="150" height="30" as="geometry">
            <mxRectangle width="150" height="30" as="alternateBounds" />
          </mxGeometry>
        </mxCell>
        <mxCell id="MWMiU2al3-OT94j2-ib6-112" value="&lt;font style=&quot;font-size: 18px;&quot;&gt;ISA&lt;/font&gt;" style="triangle;whiteSpace=wrap;html=1;strokeColor=#E07A5F;fontColor=#393C56;fillColor=#F2CC8F;direction=west;" parent="1" vertex="1">
          <mxGeometry x="1363" y="36" width="83" height="93" as="geometry" />
        </mxCell>
        <mxCell id="MWMiU2al3-OT94j2-ib6-159" style="edgeStyle=orthogonalEdgeStyle;rounded=0;orthogonalLoop=1;jettySize=auto;html=1;entryX=0;entryY=0.25;entryDx=0;entryDy=0;strokeColor=#E07A5F;fontColor=#393C56;fillColor=#F2CC8F;" parent="1" source="MWMiU2al3-OT94j2-ib6-113" target="MWMiU2al3-OT94j2-ib6-112" edge="1">
          <mxGeometry relative="1" as="geometry" />
        </mxCell>
        <mxCell id="MWMiU2al3-OT94j2-ib6-113" value="Check" style="shape=table;startSize=30;container=1;collapsible=1;childLayout=tableLayout;fixedRows=1;rowLines=0;fontStyle=1;align=center;resizeLast=1;html=1;strokeColor=#E07A5F;fontColor=#393C56;fillColor=#F2CC8F;" parent="1" vertex="1">
          <mxGeometry x="1643" y="129" width="180" height="60" as="geometry" />
        </mxCell>
        <mxCell id="MWMiU2al3-OT94j2-ib6-123" value="" style="shape=tableRow;horizontal=0;startSize=0;swimlaneHead=0;swimlaneBody=0;fillColor=none;collapsible=0;dropTarget=0;points=[[0,0.5],[1,0.5]];portConstraint=eastwest;top=0;left=0;right=0;bottom=0;strokeColor=#E07A5F;fontColor=#393C56;" parent="MWMiU2al3-OT94j2-ib6-113" vertex="1">
          <mxGeometry y="30" width="180" height="30" as="geometry" />
        </mxCell>
        <mxCell id="MWMiU2al3-OT94j2-ib6-124" value="" style="shape=partialRectangle;connectable=0;fillColor=none;top=0;left=0;bottom=0;right=0;editable=1;overflow=hidden;whiteSpace=wrap;html=1;strokeColor=#E07A5F;fontColor=#393C56;" parent="MWMiU2al3-OT94j2-ib6-123" vertex="1">
          <mxGeometry width="30" height="30" as="geometry">
            <mxRectangle width="30" height="30" as="alternateBounds" />
          </mxGeometry>
        </mxCell>
        <mxCell id="MWMiU2al3-OT94j2-ib6-125" value="CheckNumber" style="shape=partialRectangle;connectable=0;fillColor=none;top=0;left=0;bottom=0;right=0;align=left;spacingLeft=6;overflow=hidden;whiteSpace=wrap;html=1;strokeColor=#E07A5F;fontColor=#393C56;" parent="MWMiU2al3-OT94j2-ib6-123" vertex="1">
          <mxGeometry x="30" width="150" height="30" as="geometry">
            <mxRectangle width="150" height="30" as="alternateBounds" />
          </mxGeometry>
        </mxCell>
        <mxCell id="MWMiU2al3-OT94j2-ib6-139" value="Credit_card" style="shape=table;startSize=30;container=1;collapsible=1;childLayout=tableLayout;fixedRows=1;rowLines=0;fontStyle=1;align=center;resizeLast=1;html=1;strokeColor=#E07A5F;fontColor=#393C56;fillColor=#F2CC8F;" parent="1" vertex="1">
          <mxGeometry x="1647" y="-130" width="180" height="120" as="geometry" />
        </mxCell>
        <mxCell id="MWMiU2al3-OT94j2-ib6-143" value="" style="shape=tableRow;horizontal=0;startSize=0;swimlaneHead=0;swimlaneBody=0;fillColor=none;collapsible=0;dropTarget=0;points=[[0,0.5],[1,0.5]];portConstraint=eastwest;top=0;left=0;right=0;bottom=0;strokeColor=#E07A5F;fontColor=#393C56;" parent="MWMiU2al3-OT94j2-ib6-139" vertex="1">
          <mxGeometry y="30" width="180" height="30" as="geometry" />
        </mxCell>
        <mxCell id="MWMiU2al3-OT94j2-ib6-144" value="" style="shape=partialRectangle;connectable=0;fillColor=none;top=0;left=0;bottom=0;right=0;editable=1;overflow=hidden;whiteSpace=wrap;html=1;strokeColor=#E07A5F;fontColor=#393C56;" parent="MWMiU2al3-OT94j2-ib6-143" vertex="1">
          <mxGeometry width="30" height="30" as="geometry">
            <mxRectangle width="30" height="30" as="alternateBounds" />
          </mxGeometry>
        </mxCell>
        <mxCell id="MWMiU2al3-OT94j2-ib6-145" value="Card_number" style="shape=partialRectangle;connectable=0;fillColor=none;top=0;left=0;bottom=0;right=0;align=left;spacingLeft=6;overflow=hidden;whiteSpace=wrap;html=1;strokeColor=#E07A5F;fontColor=#393C56;" parent="MWMiU2al3-OT94j2-ib6-143" vertex="1">
          <mxGeometry x="30" width="150" height="30" as="geometry">
            <mxRectangle width="150" height="30" as="alternateBounds" />
          </mxGeometry>
        </mxCell>
        <mxCell id="MWMiU2al3-OT94j2-ib6-152" value="" style="shape=tableRow;horizontal=0;startSize=0;swimlaneHead=0;swimlaneBody=0;fillColor=none;collapsible=0;dropTarget=0;points=[[0,0.5],[1,0.5]];portConstraint=eastwest;top=0;left=0;right=0;bottom=0;strokeColor=#E07A5F;fontColor=#393C56;" parent="MWMiU2al3-OT94j2-ib6-139" vertex="1">
          <mxGeometry y="60" width="180" height="30" as="geometry" />
        </mxCell>
        <mxCell id="MWMiU2al3-OT94j2-ib6-153" value="" style="shape=partialRectangle;connectable=0;fillColor=none;top=0;left=0;bottom=0;right=0;editable=1;overflow=hidden;whiteSpace=wrap;html=1;strokeColor=#E07A5F;fontColor=#393C56;" parent="MWMiU2al3-OT94j2-ib6-152" vertex="1">
          <mxGeometry width="30" height="30" as="geometry">
            <mxRectangle width="30" height="30" as="alternateBounds" />
          </mxGeometry>
        </mxCell>
        <mxCell id="MWMiU2al3-OT94j2-ib6-154" value="Card_type" style="shape=partialRectangle;connectable=0;fillColor=none;top=0;left=0;bottom=0;right=0;align=left;spacingLeft=6;overflow=hidden;whiteSpace=wrap;html=1;strokeColor=#E07A5F;fontColor=#393C56;" parent="MWMiU2al3-OT94j2-ib6-152" vertex="1">
          <mxGeometry x="30" width="150" height="30" as="geometry">
            <mxRectangle width="150" height="30" as="alternateBounds" />
          </mxGeometry>
        </mxCell>
        <mxCell id="MWMiU2al3-OT94j2-ib6-155" value="" style="shape=tableRow;horizontal=0;startSize=0;swimlaneHead=0;swimlaneBody=0;fillColor=none;collapsible=0;dropTarget=0;points=[[0,0.5],[1,0.5]];portConstraint=eastwest;top=0;left=0;right=0;bottom=0;strokeColor=#E07A5F;fontColor=#393C56;" parent="MWMiU2al3-OT94j2-ib6-139" vertex="1">
          <mxGeometry y="90" width="180" height="30" as="geometry" />
        </mxCell>
        <mxCell id="MWMiU2al3-OT94j2-ib6-156" value="" style="shape=partialRectangle;connectable=0;fillColor=none;top=0;left=0;bottom=0;right=0;editable=1;overflow=hidden;whiteSpace=wrap;html=1;strokeColor=#E07A5F;fontColor=#393C56;" parent="MWMiU2al3-OT94j2-ib6-155" vertex="1">
          <mxGeometry width="30" height="30" as="geometry">
            <mxRectangle width="30" height="30" as="alternateBounds" />
          </mxGeometry>
        </mxCell>
        <mxCell id="MWMiU2al3-OT94j2-ib6-157" value="Card_Expiry" style="shape=partialRectangle;connectable=0;fillColor=none;top=0;left=0;bottom=0;right=0;align=left;spacingLeft=6;overflow=hidden;whiteSpace=wrap;html=1;strokeColor=#E07A5F;fontColor=#393C56;" parent="MWMiU2al3-OT94j2-ib6-155" vertex="1">
          <mxGeometry x="30" width="150" height="30" as="geometry">
            <mxRectangle width="150" height="30" as="alternateBounds" />
          </mxGeometry>
        </mxCell>
        <mxCell id="MWMiU2al3-OT94j2-ib6-158" style="edgeStyle=orthogonalEdgeStyle;rounded=0;orthogonalLoop=1;jettySize=auto;html=1;entryX=0;entryY=0.75;entryDx=0;entryDy=0;strokeColor=#E07A5F;fontColor=#393C56;fillColor=#F2CC8F;" parent="1" source="MWMiU2al3-OT94j2-ib6-152" target="MWMiU2al3-OT94j2-ib6-112" edge="1">
          <mxGeometry relative="1" as="geometry" />
        </mxCell>
        <mxCell id="MWMiU2al3-OT94j2-ib6-160" style="edgeStyle=orthogonalEdgeStyle;rounded=0;orthogonalLoop=1;jettySize=auto;html=1;entryX=0.988;entryY=0.461;entryDx=0;entryDy=0;entryPerimeter=0;strokeColor=#E07A5F;fontColor=#393C56;fillColor=#F2CC8F;" parent="1" source="MWMiU2al3-OT94j2-ib6-112" target="MWMiU2al3-OT94j2-ib6-83" edge="1">
          <mxGeometry relative="1" as="geometry" />
        </mxCell>
        <mxCell id="MWMiU2al3-OT94j2-ib6-161" value="" style="shape=link;html=1;rounded=0;strokeColor=#E07A5F;fontColor=#393C56;fillColor=#F2CC8F;entryX=0;entryY=0.5;entryDx=0;entryDy=0;exitX=1.008;exitY=0.47;exitDx=0;exitDy=0;exitPerimeter=0;" parent="1" source="MWMiU2al3-OT94j2-ib6-38" target="MWMiU2al3-OT94j2-ib6-165" edge="1">
          <mxGeometry relative="1" as="geometry">
            <mxPoint x="46" y="10" as="sourcePoint" />
            <mxPoint x="229" y="5" as="targetPoint" />
          </mxGeometry>
        </mxCell>
        <mxCell id="MWMiU2al3-OT94j2-ib6-163" value="" style="shape=link;html=1;rounded=0;strokeColor=#E07A5F;fontColor=#393C56;fillColor=#F2CC8F;entryX=0.044;entryY=0.533;entryDx=0;entryDy=0;entryPerimeter=0;" parent="1" target="MWMiU2al3-OT94j2-ib6-172" edge="1">
          <mxGeometry relative="1" as="geometry">
            <mxPoint x="-129" y="417" as="sourcePoint" />
            <mxPoint x="50" y="415" as="targetPoint" />
          </mxGeometry>
        </mxCell>
        <mxCell id="MWMiU2al3-OT94j2-ib6-165" value="HasEmergency&lt;div&gt;Contact&lt;/div&gt;" style="shape=rhombus;double=1;perimeter=rhombusPerimeter;whiteSpace=wrap;html=1;align=center;strokeColor=#E07A5F;fontColor=#393C56;fillColor=#F2CC8F;" parent="1" vertex="1">
          <mxGeometry x="233" y="-33.5" width="125" height="77" as="geometry" />
        </mxCell>
        <mxCell id="MWMiU2al3-OT94j2-ib6-168" value="MakesDonation&lt;span style=&quot;caret-color: rgba(0, 0, 0, 0); color: rgba(0, 0, 0, 0); font-family: monospace; font-size: 0px; text-align: start; white-space: nowrap;&quot;&gt;%3CmxGraphModel%3E%3Croot%3E%3CmxCell%20id%3D%220%22%2F%3E%3CmxCell%20id%3D%221%22%20parent%3D%220%22%2F%3E%3CmxCell%20id%3D%222%22%20value%3D%22MakesDonation%22%20style%3D%22shape%3Drhombus%3Bperimeter%3DrhombusPerimeter%3BwhiteSpace%3Dwrap%3Bhtml%3D1%3Balign%3Dcenter%3BlabelBackgroundColor%3Dnone%3BfillColor%3D%23F2CC8F%3BstrokeColor%3D%23E07A5F%3BfontColor%3D%23393C56%3B%22%20vertex%3D%221%22%20parent%3D%221%22%3E%3CmxGeometry%20x%3D%22860%22%20y%3D%2285%22%20width%3D%22120%22%20height%3D%2260%22%20as%3D%22geometry%22%2F%3E%3C%2FmxCell%3E%3C%2Froot%3E%3C%2FmxGraphModel%3E&lt;/span&gt;" style="shape=rhombus;double=1;perimeter=rhombusPerimeter;whiteSpace=wrap;html=1;align=center;strokeColor=#E07A5F;fontColor=#393C56;fillColor=#F2CC8F;" parent="1" vertex="1">
          <mxGeometry x="760" y="73" width="120" height="60" as="geometry" />
        </mxCell>
        <mxCell id="MWMiU2al3-OT94j2-ib6-170" value="" style="shape=link;html=1;rounded=0;strokeColor=#E07A5F;fontColor=#393C56;fillColor=#F2CC8F;exitX=0.958;exitY=0.483;exitDx=0;exitDy=0;exitPerimeter=0;entryX=0.004;entryY=0.563;entryDx=0;entryDy=0;entryPerimeter=0;" parent="1" source="MWMiU2al3-OT94j2-ib6-168" target="MWMiU2al3-OT94j2-ib6-83" edge="1">
          <mxGeometry relative="1" as="geometry">
            <mxPoint x="977" y="104.5" as="sourcePoint" />
            <mxPoint x="1062" y="101.5" as="targetPoint" />
          </mxGeometry>
        </mxCell>
        <mxCell id="MWMiU2al3-OT94j2-ib6-172" value="HasNeed" style="shape=rhombus;double=1;perimeter=rhombusPerimeter;whiteSpace=wrap;html=1;align=center;strokeColor=#E07A5F;fontColor=#393C56;fillColor=#F2CC8F;" parent="1" vertex="1">
          <mxGeometry x="52" y="382.43" width="120" height="60" as="geometry" />
        </mxCell>
        <mxCell id="MWMiU2al3-OT94j2-ib6-174" style="edgeStyle=orthogonalEdgeStyle;rounded=0;orthogonalLoop=1;jettySize=auto;html=1;entryX=-0.006;entryY=0.067;entryDx=0;entryDy=0;entryPerimeter=0;strokeColor=#E07A5F;fontColor=#393C56;fillColor=#F2CC8F;" parent="1" source="MWMiU2al3-OT94j2-ib6-165" target="KKD2eMfDHWxA5FH26lHS-26" edge="1">
          <mxGeometry relative="1" as="geometry" />
        </mxCell>
        <mxCell id="MWMiU2al3-OT94j2-ib6-176" value="HasExpenss" style="shape=rhombus;double=1;perimeter=rhombusPerimeter;whiteSpace=wrap;html=1;align=center;strokeColor=#E07A5F;fontColor=#393C56;fillColor=#F2CC8F;" parent="1" vertex="1">
          <mxGeometry x="1038" y="565" width="120" height="60" as="geometry" />
        </mxCell>
        <mxCell id="MWMiU2al3-OT94j2-ib6-177" value="" style="shape=link;html=1;rounded=0;strokeColor=#E07A5F;fontColor=#393C56;fillColor=#F2CC8F;exitX=1;exitY=0.5;exitDx=0;exitDy=0;entryX=0.004;entryY=0.112;entryDx=0;entryDy=0;entryPerimeter=0;" parent="1" source="MWMiU2al3-OT94j2-ib6-176" target="MWMiU2al3-OT94j2-ib6-54" edge="1">
          <mxGeometry relative="1" as="geometry">
            <mxPoint x="1184" y="607" as="sourcePoint" />
            <mxPoint x="1344" y="607" as="targetPoint" />
          </mxGeometry>
        </mxCell>
      </root>
    </mxGraphModel>
  </diagram>
</mxfile>
